<?xml version="1.0" encoding="UTF-8" standalone="no"?>
<!-- Created with Inkscape (http://www.inkscape.org/) -->

<svg
   xmlns:dc="http://purl.org/dc/elements/1.1/"
   xmlns:cc="http://creativecommons.org/ns#"
   xmlns:rdf="http://www.w3.org/1999/02/22-rdf-syntax-ns#"
   xmlns:svg="http://www.w3.org/2000/svg"
   xmlns="http://www.w3.org/2000/svg"
   xmlns:sodipodi="http://sodipodi.sourceforge.net/DTD/sodipodi-0.dtd"
   xmlns:inkscape="http://www.inkscape.org/namespaces/inkscape"
   width="2048"
   height="1996"
   viewBox="0 0 541.86665 528.10835"
   version="1.1"
   id="svg8"
   inkscape:version="0.92.3 (2405546, 2018-03-11)"
   sodipodi:docname="侍.svg">
  <defs
     id="defs2" />
  <sodipodi:namedview
     id="base"
     pagecolor="#ffffff"
     bordercolor="#666666"
     borderopacity="1.0"
     inkscape:pageopacity="0.0"
     inkscape:pageshadow="2"
     inkscape:zoom="0.35"
     inkscape:cx="655.72064"
     inkscape:cy="784.03486"
     inkscape:document-units="mm"
     inkscape:current-layer="layer1"
     showgrid="false"
     units="px"
     inkscape:window-width="1510"
     inkscape:window-height="928"
     inkscape:window-x="8"
     inkscape:window-y="16"
     inkscape:window-maximized="0" />
  <metadata
     id="metadata5">
    <rdf:RDF>
      <cc:Work
         rdf:about="">
        <dc:format>image/svg+xml</dc:format>
        <dc:type
           rdf:resource="http://purl.org/dc/dcmitype/StillImage" />
        <dc:title></dc:title>
      </cc:Work>
    </rdf:RDF>
  </metadata>
  <g
     inkscape:label="圖層 1"
     inkscape:groupmode="layer"
     id="layer1"
     transform="translate(0,231.10835)">
    <path
       style="fill:#000000;stroke-width:1.16809309"
       d="m 353.76714,260.73644 c -1.76673,-1.09538 -3.21225,-2.87734 -3.21225,-3.9599 0,-1.08256 -0.44432,-2.1435 -0.98737,-2.35767 -0.54306,-0.21414 -1.3526,-1.87891 -1.79897,-3.69948 -0.53337,-2.17541 -0.3951,-3.05273 0.40334,-2.55927 0.6682,0.41296 1.2149,0.1942 1.2149,-0.48618 0,-0.68036 -0.58529,-1.23703 -1.30067,-1.23703 -0.78953,0 -1.09221,-1.42028 -0.77022,-3.61415 0.43245,-2.94648 0.017,-3.84809 -2.24875,-4.88044 -1.60881,-0.73302 -2.52252,-1.93513 -2.16969,-2.85457 0.33521,-0.87357 -0.17011,-1.88746 -1.12296,-2.2531 -0.95285,-0.36565 -1.73244,-1.65984 -1.73244,-2.87602 0,-1.21616 -0.52564,-2.21121 -1.1681,-2.21121 -0.64245,0 -1.16809,-1.05129 -1.16809,-2.33619 0,-1.2849 -0.52565,-2.33618 -1.16809,-2.33618 -0.64245,0 -1.1681,-0.68368 -1.1681,-1.51927 0,-2.14896 -2.74728,-7.80546 -3.7963,-7.81636 -0.48184,-0.004 -0.87607,-0.70875 -0.87607,-1.56387 0,-0.85512 -1.3374,-2.27051 -2.97198,-3.14532 -1.96943,-1.05401 -2.85601,-2.40121 -2.62821,-3.99368 0.28086,-1.96332 1.25234,-2.43282 5.30817,-2.56533 2.73042,-0.0892 4.96439,0.36939 4.96439,1.0191 0,0.78141 0.49425,0.77196 1.46011,-0.0279 0.89838,-0.74403 3.34504,-0.86397 6.35961,-0.31175 2.69472,0.49362 5.33875,0.45823 5.87564,-0.0786 0.79715,-0.79715 4.34815,-0.23217 10.41209,1.6566 0.42556,0.13255 0.95425,-0.94168 1.17486,-2.3872 0.22059,-1.44551 -0.16302,-2.6282 -0.85249,-2.6282 -0.77321,0 -0.97078,-1.28753 -0.51561,-3.35995 0.50619,-2.3046 -0.007,-4.68643 -1.63403,-7.5831 -1.92063,-3.41951 -2.13978,-4.83393 -1.15171,-7.43275 0.70111,-1.84406 0.84356,-4.95421 0.33482,-7.31009 -0.487,-2.25528 -0.96241,-6.50979 -1.05647,-9.45449 -0.094,-2.9447 -0.4887,-5.86802 -0.87699,-6.49628 -0.38827,-0.62825 -0.45398,-2.74113 -0.146,-4.69528 0.30798,-1.95417 0.0685,-6.65264 -0.53237,-10.44107 -0.60079,-3.78844 -0.7516,-7.01903 -0.33513,-7.17911 1.01685,-0.39083 0.72802,-8.96308 -0.3614,-10.72576 -0.47579,-0.76987 -0.52468,-3.21434 -0.10862,-5.43217 0.41606,-2.21781 0.35612,-4.6802 -0.13321,-5.47194 -0.48933,-0.79175 -0.74349,-2.83325 -0.56482,-4.53667 0.17868,-1.70342 -0.1962,-3.41916 -0.83305,-3.81276 -0.73906,-0.45675 -0.7719,-2.06163 -0.0907,-4.43646 0.73591,-2.565954 0.65589,-3.975004 -0.25782,-4.539704 -0.95741,-0.59171 -0.99388,-2.12315 -0.13143,-5.52089 0.85188,-3.356143 0.82024,-5.075295 -0.11051,-6.006032 -0.84568,-0.845687 -0.89688,-1.594821 -0.14567,-2.131431 1.40274,-1.002026 1.58252,-8.420035 0.20405,-8.420035 -0.53728,0 -0.81612,-1.86568 -0.61966,-4.145961 0.23289,-2.703095 -0.24412,-4.526196 -1.37061,-5.238535 -2.60295,-1.645948 -8.63622,-1.345912 -12.39916,0.616601 -1.84019,0.959717 -4.76028,1.74818 -6.4891,1.75214 -1.72883,0.0035 -3.49033,0.568675 -3.91446,1.254917 -0.42413,0.686255 -1.47247,0.978606 -2.32965,0.649671 -0.8572,-0.328936 -1.73209,-0.07733 -1.94423,0.559037 -0.21213,0.636413 -4.18841,1.22762 -8.83616,1.313801 -4.64776,0.08621 -8.45047,0.656013 -8.45047,1.266296 0,0.61577 -1.81955,0.814335 -4.08832,0.446164 -2.24858,-0.364889 -4.08833,-0.170846 -4.08833,0.431213 0,0.602059 -1.05128,1.094656 -2.33619,1.094656 -1.2849,0 -2.33618,0.525641 -2.33618,1.168093 0,0.64245 -1.02027,1.168093 -2.26725,1.168093 -1.24699,0 -2.61426,0.561478 -3.03838,1.247722 -0.42414,0.686254 -1.50643,0.965569 -2.40513,0.620713 -0.89871,-0.344927 -1.634,-0.117931 -1.634,0.504347 0,0.62229 -0.99505,1.131439 -2.21121,1.131439 -1.21618,0 -2.51377,0.788462 -2.88358,1.75214 -0.3698,0.963677 -1.69632,1.752139 -2.94786,1.752139 -1.25153,0 -2.54063,0.657052 -2.86468,1.460116 -0.35196,0.872262 -0.62629,0.637126 -0.68138,-0.584046 -0.12956,-2.872072 -4.81795,-2.676486 -5.57873,0.23273 -0.62145,2.376416 -11.2267,8.654782 -12.48832,7.393142 -0.39813,-0.398121 -2.0068,0.48138 -3.57484,1.95447 -2.04799,1.92399 -3.65734,2.47594 -5.71407,1.95974 -1.96107,-0.4922 -3.07394,-0.16919 -3.53229,1.02523 -0.36805,0.9591 -1.41789,1.74383 -2.333,1.74383 -0.91509,0 -1.95466,0.757914 -2.31014,1.684264 -0.35547,0.92635 -1.59439,1.64375 -2.75318,1.59422 -1.15877,-0.0495 -5.39213,0.27713 -9.40745,0.72591 -5.10364,0.57043 -7.30058,0.42146 -7.30058,-0.49506 0,-0.72106 -0.52564,-0.98615 -1.16809,-0.5891 -0.64246,0.39706 -1.1681,0.0158 -1.1681,-0.84731 0,-0.86308 -1.5862,-2.506224 -3.52488,-3.651424 -1.93869,-1.14521 -3.21947,-2.57636 -2.84619,-3.18034 0.37328,-0.60397 -0.1431,-1.41347 -1.14749,-1.79889 -1.0044,-0.385428 -1.82619,-1.695819 -1.82619,-2.911991 0,-1.21616 -0.46436,-2.211212 -1.03191,-2.211212 -1.55415,0 -2.3285,-5.693017 -0.84248,-6.193801 0.87668,-0.295435 0.77641,-1.057464 -0.31278,-2.376942 -1.37037,-1.660082 -1.34873,-1.942095 0.14898,-1.942095 0.96368,0 2.42636,-0.812386 3.25041,-1.805299 0.82404,-0.992915 2.13847,-1.559627 2.92092,-1.259369 0.78246,0.300259 2.01235,-0.04381 2.73308,-0.764504 0.72075,-0.72075 1.31009,-0.811077 1.30967,-0.200749 -8.4e-4,1.225692 8.41397,1.553388 9.34551,0.363943 0.32123,-0.410153 3.21227,-1.088733 6.42452,-1.50795 3.40351,-0.444167 6.46894,-1.5928 7.34671,-2.752845 1.2243,-1.618032 1.68919,-1.694611 2.48367,-0.409125 0.71616,1.158784 2.30266,1.357628 5.93532,0.743901 2.72683,-0.460696 7.54372,-0.977005 10.70421,-1.147349 3.16048,-0.170343 6.07568,-0.639063 6.47821,-1.0416 0.40255,-0.402537 2.1902,-0.731892 3.97256,-0.731892 1.78235,0 3.54133,-0.4865 3.90882,-1.081117 0.36749,-0.594606 2.23826,-0.882401 4.15727,-0.639531 1.919,0.242859 3.48909,-0.04964 3.48909,-0.650009 0,-0.600365 2.62316,-1.032477 5.82924,-0.960242 3.20607,0.07219 6.62275,-0.527231 7.5926,-1.33214 1.40184,-1.163434 1.76338,-1.165349 1.76338,-0.0094 0,1.149883 0.37251,1.144989 1.78037,-0.02348 0.9792,-0.812666 2.11352,-1.144404 2.52073,-0.737206 0.4072,0.407208 1.44579,0.154923 2.30795,-0.560615 1.13875,-0.945081 1.5676,-0.947768 1.5676,-0.0094 0,0.749263 1.73081,0.31903 4.12386,-1.02506 2.26811,-1.273934 4.89633,-2.316235 5.84047,-2.316235 0.94412,0 1.7166,-0.409218 1.7166,-0.909372 0,-0.500154 3.81091,-1.885022 8.46867,-3.077482 4.65778,-1.192471 8.75677,-2.61369 9.10889,-3.158279 0.35211,-0.544588 4.29442,-1.177029 8.7607,-1.405426 7.19567,-0.367961 8.28481,-0.736155 9.56339,-3.232931 1.7438,-3.405728 1.92262,-8.074526 0.30924,-8.074526 -0.64245,0 -1.1681,-0.724101 -1.1681,-1.609118 0,-0.885006 -0.78268,-2.258672 -1.73928,-3.052578 -0.95659,-0.793918 -1.49657,-1.836184 -1.19992,-2.316165 0.56813,-0.919243 -4.27626,-3.259307 -13.99054,-6.758073 -5.55442,-2.000523 -5.83583,-2.308292 -5.89509,-6.447418 -0.0342,-2.390632 0.33808,-4.346605 0.82737,-4.346605 0.48927,0 1.45886,-1.063688 2.15464,-2.363765 1.58487,-2.9613498 -0.85792,-5.8128868 -4.97965,-5.8128868 -1.53758,0 -5.29962,-0.85321 -8.36009,-1.896014 -4.17455,-1.4224103 -6.19601,-1.5866323 -8.09271,-0.6574605 -5.53397,2.7110395 -7.46494,2.7340505 -8.15449,0.097189 -0.37776,-1.44459251 0.0593,-3.2405594 1.02329,-4.2045165 2.17031,-2.1703175 2.13253,-2.7832507 -0.1183,-1.9195276 -1.42336,0.5462001 -1.68042,0.025929 -1.2258,-2.4811112 0.53552,-2.9532782 -1.01089,-7.3122274 -3.1561,-8.8963024 -0.5096,-0.37629 -0.63352,-2.347447 -0.27537,-4.38035 0.41479,-2.354466 0.17166,-3.696173 -0.66982,-3.696173 -0.74568,0 -1.05505,-1.01693 -0.71036,-2.335019 0.33583,-1.284272 0.0783,-2.664081 -0.57252,-3.066245 -0.7391,-0.456794 -0.58835,-1.114816 0.40169,-1.753307 1.00675,-0.649273 1.15875,-1.341625 0.41673,-1.898151 -2.16813,-1.626091 -4.05517,-6.02784 -3.36038,-7.838455 0.51253,-1.335586 -0.0934,-1.798279 -2.35512,-1.798279 -1.67487,0 -3.0452,0.512501 -3.0452,1.138891 0,0.642241 -1.52689,0.833516 -3.50139,0.438618 -2.07813,-0.41563 -4.21477,-0.108282 -5.25642,0.756271 -1.44626,1.200286 -1.75504,1.101138 -1.75504,-0.563582 0,-1.34583 -0.6051,-1.787941 -1.81281,-1.3245 -0.99704,0.382597 -1.5141,0.212336 -1.14903,-0.378369 0.36507,-0.590693 0.18463,-1.370115 -0.40098,-1.732049 -0.58561,-0.361921 -1.36275,0.118538 -1.72697,1.067684 -0.36423,0.949157 -1.33919,1.534852 -2.16657,1.301537 -10.72411,-3.024053 -14.92962,-4.880433 -14.36856,-6.342536 0.41889,-1.091594 0.0422,-1.406688 -1.13964,-0.953199 -0.97097,0.372599 -1.76539,0.157038 -1.76539,-0.479023 0,-0.636062 -1.31411,-1.755224 -2.92023,-2.487023 -1.60613,-0.73181 -2.92024,-2.241219 -2.92024,-3.354272 0,-1.113042 -0.843,-2.347202 -1.87333,-2.742578 -1.06264,-0.40777 -1.58597,-1.467709 -1.20932,-2.449258 0.44339,-1.155478 -0.29251,-1.970456 -2.215,-2.45296 -2.47254,-0.620574 -4.41761,-4.299296 -2.00293,-3.788161 1.01133,0.214076 4.62995,-1.033085 7.5926,-2.616798 1.55792,-0.832792 2.04417,-0.639554 2.04417,0.812339 0,1.560946 0.31649,1.642397 1.75213,0.450918 1.45065,-1.20393 1.75826,-1.077799 1.78767,0.733049 0.0318,1.966018 0.14976,1.991459 1.16534,0.251654 0.69834,-1.196349 2.02305,-1.701934 3.46875,-1.323881 1.49329,0.390505 2.34542,0.03446 2.35683,-0.984703 0.0149,-1.33638 0.18085,-1.339196 1.01853,-0.01729 0.784,1.237162 1.42944,0.984247 2.98098,-1.168093 1.66253,-2.306331 1.92085,-2.391297 1.60968,-0.529509 -0.44257,2.647974 4.19723,3.523729 6.15715,1.162148 0.67959,-0.818845 1.98565,-1.200999 2.90234,-0.849227 0.91671,0.351772 1.66675,0.07418 1.66675,-0.616823 0,-0.691021 0.78402,-0.955535 1.74228,-0.58782 1.00823,0.386896 2.05602,-0.148978 2.48692,-1.27189 0.40954,-1.067252 1.40848,-1.685722 2.21984,-1.374367 2.03247,0.779936 5.66764,-9.049474 4.72932,-12.788002 -0.4026,-1.60412 -0.11191,-5.13085 0.6461,-7.837205 0.75796,-2.706344 1.33199,-5.830156 1.27566,-6.941796 -0.0563,-1.11164 0.38975,-2.32535 0.99131,-2.69714 1.33138,-0.82284 1.46631,-5.21048 0.16023,-5.21048 -0.51345,0 -0.72741,-1.76566 -0.47546,-3.92369 0.38416,-3.29073 0.0166,-4.06445 -2.27873,-4.79619 -2.27634,-0.72571 -2.39287,-0.96433 -0.69262,-1.41837 2.13448,-0.57 2.81853,-4.4305 0.98576,-5.56321 -0.62216,-0.38452 -0.55439,-2.29637 0.16443,-4.63849 0.67256,-2.1914 0.82908,-4.95051 0.34783,-6.13135 -1.71517,-4.20849 -0.6093,-29.64297 1.59124,-36.59802 1.7889,-5.65394 1.63838,-6.74859 -1.04509,-7.60029 -1.28491,-0.40781 -2.33619,-1.75734 -2.33619,-2.99894 0,-1.24161 -0.52564,-2.25748 -1.1681,-2.25748 -0.64244,0 -1.16808,-1.05128 -1.16808,-2.33618 0,-1.2849 -0.65706,-2.33815 -1.46012,-2.34056 -0.80307,-0.002 -3.29986,-1.1601 -5.54845,-2.57267 -2.24857,-1.41258 -4.38869,-2.5933 -4.7558,-2.62384 -0.36711,-0.0306 -1.60551,-0.99356 -2.75196,-2.14002 -1.50849,-1.50848 -2.49355,-1.745 -3.56482,-0.85591 -2.22311,1.84502 -5.28072,0.13492 -5.28072,-2.95348 0,-2.31659 0.742,-2.82755 4.9644,-3.41866 2.73042,-0.38224 6.16112,-0.44192 7.6238,-0.13263 1.50679,0.31862 2.36288,0.0825 1.97522,-0.54469 -0.3763,-0.60887 0.89276,-1.10704 2.82011,-1.10704 1.92736,0 3.82501,-0.51897 4.21704,-1.15328 0.39202,-0.6343 2.52561,-0.92118 4.74131,-0.63749 2.2157,0.28367 4.02854,0.0509 4.02854,-0.51733 0,-0.58726 1.38627,-0.60769 3.21226,-0.0473 4.84889,1.48802 9.61741,3.99053 9.62765,5.05259 0.004,0.51975 0.53476,0.62014 1.17721,0.22309 0.64245,-0.39706 1.16809,-0.17876 1.16809,0.48511 0,0.66387 1.57693,2.02249 3.50429,3.01916 1.92735,0.99668 3.50428,2.61813 3.50428,3.60322 0,0.98509 0.52564,1.46622 1.16809,1.06916 0.64245,-0.39706 1.16809,-0.28001 1.16809,0.2601 0,0.5401 2.36539,1.68042 5.25642,2.53405 3.82778,1.13021 5.25642,2.15194 5.25642,3.75929 0,1.21399 0.52564,2.20726 1.1681,2.20726 0.64244,0 1.16808,0.68366 1.16808,1.51926 0,2.23944 2.76725,7.80581 3.8858,7.81637 0.53107,0.005 0.80032,1.92705 0.59837,4.27118 -0.33898,3.93445 0.63745,5.41302 4.59605,6.95965 0.17573,0.0687 -0.0119,0.98853 -0.41699,2.04417 -0.44577,1.16164 -2.05607,1.91932 -4.07916,1.91932 -2.49134,0 -3.17142,0.44624 -2.6703,1.75214 0.36981,0.96367 0.10393,1.75214 -0.5907,1.75214 -2.53335,0 -4.80313,7.05228 -5.51384,17.13164 -0.40017,5.67521 -0.9305,10.533 -1.17849,10.79512 -0.24802,0.26212 -0.024,1.05058 0.49799,1.75214 0.5219,0.70156 0.6114,5.4807 0.1989,10.62031 -0.42809,5.33389 -0.27699,9.97144 0.35208,10.80487 0.72917,0.96605 0.6351,1.46011 -0.27799,1.46011 -0.80624,0 -1.00502,0.6068 -0.47808,1.4594 0.49608,0.80269 0.80369,3.03666 0.6836,4.964401 -0.12011,1.927738 0.0745,2.847932 0.43239,2.044871 0.35793,-0.803066 2.31531,-1.463357 4.34973,-1.467319 2.03444,-0.0032 5.20457,-0.792413 7.04475,-1.752133 1.84018,-0.95972 4.07416,-1.74495 4.9644,-1.74495 0.89024,0 1.61861,-0.51537 1.61861,-1.14528 0,-0.6299 1.59783,-0.95924 3.55073,-0.73185 2.95225,0.34373 3.85151,-0.16827 5.33537,-3.03772 1.12098,-2.16774 2.40687,-3.21237 3.45783,-2.80909 0.92026,0.35315 1.67319,0.13293 1.67319,-0.48936 0,-0.62229 1.05129,-1.13143 2.33619,-1.13143 1.2849,0 2.33619,-0.56592 2.33619,-1.2576 0,-0.69167 1.70833,-1.16405 3.7963,-1.04974 2.08797,0.11436 4.19053,0.0962 4.67237,-0.0403 3.57832,-1.01352 13.72509,2.25917 13.72509,4.42682 0,0.56667 1.19749,1.67118 2.66107,2.45447 5.92278,3.16977 7.02789,13.479161 2.0113,18.763181 -3.34269,3.520902 -15.42618,9.689415 -19.95091,10.184757 -1.67551,0.183437 -4.0483,0.745909 -5.27283,1.249941 -4.12004,1.695885 -14.49142,8.67829 -14.49142,9.756183 0,0.587352 -1.05129,1.067906 -2.33619,1.067906 -1.2849,0 -2.33618,0.525641 -2.33618,1.168093 0,0.642451 -1.02026,1.168093 -2.26725,1.168093 -1.24698,0 -2.53201,0.428398 -2.85561,0.951984 -0.3236,0.523598 -3.7713,1.969008 -7.66155,3.212023 -4.06759,1.299691 -7.07318,2.933689 -7.07318,3.845363 0,0.898555 -0.72732,1.30622 -1.67896,0.941038 -2.08615,-0.800528 -2.96546,2.581405 -1.36955,5.267482 0.78292,1.317713 0.72386,3.375006 -0.18159,6.325224 -0.73805,2.404777 -0.98962,4.942319 -0.55907,5.638993 1.22358,1.979766 0.3408,7.125322 -2.73062,15.916391 -1.55373,4.447094 -2.82495,9.67243 -2.82495,11.61185 0,1.9394205 -0.53009,3.5262171 -1.17799,3.5262171 -0.7085,0 -0.6113,0.9074095 0.24389,2.2767997 0.98616,1.5790871 1.8464,1.9244803 2.80718,1.1271048 0.76191,-0.6323241 1.83485,-1.0463659 2.38431,-0.9200834 0.54947,0.1262943 2.57596,-0.4362247 4.5033,-1.2500228 1.92735,-0.8137987 4.81839,-1.6244092 6.42452,-1.8013519 1.60613,-0.1769543 3.84796,-0.7065322 4.98185,-1.1768534 1.13388,-0.4703211 3.10504,-0.5822601 4.38035,-0.2487571 1.27529,0.3334903 2.31873,0.2034702 2.31873,-0.2889636 0,-0.4924211 2.92733,-1.1974344 6.50519,-1.5667044 3.57785,-0.36927 7.25455,-1.293313 8.17043,-2.053427 0.91588,-0.760112 2.7188,-1.10651 4.00649,-0.769772 1.28768,0.336738 2.58584,0.216471 2.88479,-0.267248 0.29896,-0.483719 2.13221,-0.924652 4.07391,-0.979856 1.94169,-0.05526 4.09927,-0.451993 4.79463,-0.881746 1.06102,-0.655745 4.76575,-1.150654 14.82817,-1.980853 0.80306,-0.06623 1.46011,-0.619813 1.46011,-1.230119 0,-0.610305 1.05076,-0.83486 2.33502,-0.499021 1.28428,0.335838 2.66439,0.07768 3.06695,-0.573638 0.42534,-0.68823 2.65723,-0.876398 5.32846,-0.449261 2.52809,0.404265 5.20239,0.360579 5.9429,-0.09707 0.74049,-0.457659 3.99387,-0.945034 7.22971,-1.083068 11.88109,-0.506824 23.00312,-2.380713 24.06202,-4.054066 0.90693,-1.433179 1.06422,-1.421908 1.09486,0.0785 0.0299,1.466623 0.204,1.486469 1.06809,0.121809 0.56778,-0.896676 1.87383,-1.307401 2.90235,-0.912725 1.22702,0.470859 1.87002,0.0848 1.87002,-1.122853 0,-1.219793 0.64082,-1.594552 1.9002,-1.111289 1.04511,0.401053 2.61901,0.132614 3.49756,-0.596521 0.87856,-0.729136 2.95542,-1.066096 4.61526,-0.748807 2.35114,0.449448 3.29727,-0.03632 4.28253,-2.198725 1.38279,-3.034893 3.6657,-3.438795 8.67396,-1.534664 2.30379,0.875907 3.38569,0.875907 3.67767,0 0.22751,-0.682529 1.91575,-1.240971 3.75166,-1.240971 1.83589,0 3.67607,-0.547017 4.08928,-1.21561 0.41321,-0.668582 1.69317,-0.916662 2.84437,-0.551282 1.47611,0.468498 2.28738,-0.07873 2.75225,-1.856346 0.43504,-1.663597 1.26588,-2.287826 2.44358,-1.835903 0.98143,0.376605 2.0809,0.205012 2.44327,-0.381324 0.36238,-0.586336 1.36267,-0.795986 2.22286,-0.465905 0.86021,0.330091 1.89094,-0.251819 2.29053,-1.293138 0.39959,-1.04132 1.27891,-1.551917 1.95405,-1.134662 0.67513,0.417254 1.97141,0.141257 2.88063,-0.613332 1.90581,-1.58168 7.97988,-0.629683 11.92854,1.869557 1.42292,0.900611 3.3002,1.63748 4.17177,1.63748 2.68861,0 9.76339,3.908031 13.90051,7.678495 2.1666,1.974592 4.58088,3.376303 5.36505,3.114907 0.78416,-0.261384 1.42574,0.268195 1.42574,1.176855 0,0.908648 1.3088,2.352539 2.90843,3.208634 2.22135,1.188828 2.78219,2.252761 2.37403,4.503642 -0.29393,1.620893 -0.0983,3.506078 0.43478,4.189273 0.53305,0.683206 1.28572,2.572994 1.67258,4.199529 0.79275,3.3330954 -2.45338,6.2796214 -5.5915,5.0754109 -1.15927,-0.4448681 -1.79832,-0.023043 -1.79832,1.1870164 0,1.0324195 -0.77197,1.8771131 -1.71548,1.8771131 -0.94351,0 -1.463,0.657053 -1.15443,1.4601169 0.84403,2.1966108 -13.55633,1.6116998 -19.89216,-0.8079697 -3.61857,-1.381948 -7.20051,-1.7996805 -11.92425,-1.3906148 -4.47713,0.3877012 -8.03589,0.020328 -10.56278,-1.0905549 -2.09594,-0.921392 -5.64929,-2.4877818 -7.89631,-3.4808599 -2.57644,-1.138669 -5.52795,-1.534991 -7.99065,-1.072987 -2.14784,0.402934 -6.22285,0.101619 -9.05556,-0.669551 -7.85211,-2.137691 -17.67089,-2.600782 -18.73225,-0.883486 -0.86643,1.40191 -10.36216,2.187814 -10.36343,0.857706 -10e-4,-1.308158 -21.13411,-0.126936 -22.82426,1.275769 -0.93846,0.7788606 -1.70631,1.024569 -1.70631,0.5460134 0,-0.4785564 -0.86154,-0.1550874 -1.91455,0.7188206 -1.05298,0.8739093 -3.14674,1.4274452 -4.65279,1.2300958 -1.50606,-0.1973612 -3.40381,0.052444 -4.21726,0.5552183 -0.81343,0.5027352 -2.87268,0.7678696 -4.5761,0.5891977 -1.70341,-0.1786837 -3.44309,0.2349268 -3.86594,0.9191143 -1.0243,1.6573593 -6.47141,1.6008361 -6.47141,-0.06716 0,-0.9514005 -0.42167,-0.9611652 -1.53691,-0.03563 -0.8453,0.7015444 -4.70431,1.4718552 -8.57555,1.711805 -3.87125,0.2399497 -7.60401,0.7856941 -8.29501,1.2127494 -0.691,0.427066 -3.79677,1.1145002 -6.90169,1.5276202 -3.10492,0.4131196 -6.05344,1.43849509 -6.55228,2.27859929 -0.49882,0.84011541 -1.81292,1.23689391 -2.92023,0.88174671 -1.70794,-0.5477889 -1.74754,-0.4545167 -0.26113,0.6149542 1.94039,1.3961283 14.09414,5.3255113 15.47724,5.0038883 0.48183,-0.11202 0.87606,0.390704 0.87606,1.117212 0,0.858875 1.43924,1.087378 4.11451,0.653244 2.46078,-0.399336 3.83947,-0.222708 3.43024,0.43946 -0.37634,0.6089268 0.13753,1.4224918 1.14192,1.8079158 1.0044,0.385424 1.82617,1.226265 1.82617,1.868541 0,0.642276 2.62821,3.635269 5.84047,6.651087 3.21226,3.01583 5.84046,6.113589 5.84046,6.883912 0,0.770322 0.58531,1.40059 1.30067,1.40059 0.78942,0 1.09227,1.419969 0.77049,3.61248 -0.58691,3.998757 1.53141,5.738083 4.24528,3.485777 0.88787,-0.736868 2.06388,-1.236438 2.61334,-1.110155 0.54945,0.126294 2.48865,-0.384665 4.3093,-1.135457 1.82065,-0.750792 3.79181,-1.067474 4.38035,-0.703741 0.58853,0.363744 1.07007,0.104664 1.07007,-0.575684 0,-0.680366 1.02026,-1.237033 2.26724,-1.237033 1.24699,0 2.53082,-0.426447 2.85295,-0.947675 0.32213,-0.521214 2.19419,-0.836307 4.16012,-0.700201 1.96593,0.136107 3.86698,-0.225909 4.22455,-0.804466 0.35758,-0.578568 1.53899,-1.055174 2.62536,-1.059133 1.08638,-0.0035 3.41183,-0.756632 5.16769,-1.672604 1.98377,-1.034873 3.46046,-1.23179 3.9003,-0.520128 0.44878,0.726132 1.29227,0.660229 2.3048,-0.180097 0.87834,-0.72896 2.09859,-1.015365 2.71167,-0.636459 0.61308,0.378906 3.26431,0.773149 5.89163,0.876092 2.62733,0.102907 4.77695,0.577447 4.77695,1.054427 0,0.47699 0.97396,0.612559 2.16433,0.301263 1.1904,-0.311297 4.34425,0.02103 7.00857,0.738434 4.15204,1.118028 4.84952,1.756963 4.88136,4.471635 0.0339,2.882713 0.17655,2.983601 1.5889,1.123075 2.16966,-2.858184 4.08104,-2.547086 5.38251,0.87607 0.61065,1.606128 1.67995,2.920233 2.37622,2.920233 0.69626,0 0.93577,0.534215 0.53224,1.187145 -0.40353,0.652929 -1.30423,0.834532 -2.00156,0.403563 -0.75671,-0.46768 -0.93185,-0.239902 -0.43439,0.564996 1.10504,1.787988 3.85481,1.721232 4.59436,-0.111553 0.32403,-0.803064 0.63067,-0.277422 0.68139,1.168093 0.0532,1.516477 0.83337,2.628209 1.84436,2.628209 0.96367,0 1.75213,0.556667 1.75213,1.237035 0,0.680368 0.52564,0.912164 1.1681,0.515105 0.64245,-0.397058 1.16809,0.36038 1.16809,1.683199 0,1.430331 -0.76079,2.405127 -1.87711,2.405127 -1.1412,0 -1.62771,0.649962 -1.24095,1.657863 0.48041,1.251893 -0.20408,1.55152 -2.79525,1.223589 -3.45171,-0.436843 -4.68955,0.999982 -1.97133,2.288225 0.80307,0.380599 -0.51103,0.457448 -2.92023,0.170787 -2.8945,-0.344413 -4.38037,-0.05082 -4.38041,0.865464 -5e-5,0.931321 -2.54127,1.384411 -7.73869,1.379797 -4.81942,-0.0047 -7.93567,0.506615 -8.26098,1.354369 -0.35553,0.926509 -1.60956,1.049451 -3.9265,0.38497 -1.96373,-0.563197 -3.68321,-0.52472 -4.06371,0.09087 -0.67245,1.088056 -7.8548,0.59929 -9.91635,-0.674819 -0.62508,-0.386312 -1.79355,-0.283847 -2.59661,0.227696 -0.80307,0.511543 -3.45866,1.026333 -5.90133,1.143972 -2.44265,0.117638 -6.08725,0.787704 -8.09907,1.489027 -2.06743,0.720713 -3.94554,0.825783 -4.31949,0.241643 -0.36389,-0.568429 -5.47123,-0.99817 -11.34963,-0.954986 l -10.68801,0.0785 -1.35659,4.527868 c -0.74612,2.490316 -1.57407,8.301603 -1.83989,12.913947 -0.26582,4.612345 -0.98332,10.087325 -1.59445,12.166637 -0.61112,2.079298 -0.70471,4.031725 -0.20797,4.338725 0.49674,0.30701 0.53672,2.97275 0.0889,5.92388 -1.00098,6.595634 -0.24618,11.070834 1.86723,11.070834 1.26796,0 1.32403,0.58576 0.27613,2.88566 -0.94594,2.07609 -0.9597,3.31348 -0.0491,4.41071 1.3186,1.58879 1.21554,3.57372 -0.66853,12.87499 -0.62056,3.06362 -0.71219,5.82736 -0.20363,6.14168 0.50856,0.31431 0.40091,2.46831 -0.23923,4.78669 -0.64012,2.31837 -0.84942,5.4681 -0.46509,6.99938 0.38432,1.53128 0.25416,2.78416 -0.28927,2.78416 -1.0065,0 -0.59748,6.16596 0.61989,9.34475 0.36904,0.96368 0.55638,2.92602 0.4163,4.36078 -0.1401,1.43474 0.15958,3.27449 0.66594,4.08832 1.00714,1.61869 1.3518,10.23803 0.4095,10.24097 -0.32123,10e-4 -0.58405,3.41709 -0.58405,7.5913 0,4.17422 -0.45859,7.59036 -1.01908,7.59141 -0.56052,0.001 -0.49153,0.65896 0.15329,1.46203 0.64481,0.80307 1.03287,3.96488 0.86237,7.02623 -0.22724,4.07972 0.17981,5.84025 1.52427,6.59264 1.66056,0.9293 1.64774,1.60417 -0.1353,7.12503 -1.08328,3.35417 -1.96959,7.87787 -1.96959,10.05268 0,2.37509 -0.5831,3.96134 -1.46012,3.97207 -1.15681,0.0142 -1.1539,0.21228 0.0141,0.95366 1.14905,0.72943 1.1796,1.78058 0.13851,4.76706 -0.83552,2.39676 -1.65461,3.31511 -2.18762,2.4527 -0.59473,-0.96231 -1.08944,-0.75994 -1.6382,0.67009 -0.43238,1.12681 -0.20651,2.40697 0.50193,2.84481 1.68329,1.04033 -2.05308,12.82376 -4.06626,12.82376 -0.78118,0 -2.1236,1.3141 -2.98316,2.92024 -0.85958,1.60612 -2.52534,2.92023 -3.70167,2.92023 -1.17634,0 -2.1388,0.52564 -2.1388,1.16809 0,1.85779 -6.11888,1.29542 -9.63678,-0.88569 z M 462.69184,33.191 c 0,-1.001593 -0.52564,-1.49621 -1.1681,-1.099152 -0.64244,0.397058 -1.16809,1.216545 -1.16809,1.821081 0,0.604535 0.52565,1.099153 1.16809,1.099153 0.64246,0 1.1681,-0.819489 1.1681,-1.821082 z m 31.16836,-47.457849 c -0.37288,-0.931823 -0.64968,-0.655043 -0.70572,0.705727 -0.0507,1.231357 0.22536,1.921268 0.61351,1.533123 0.38814,-0.388158 0.42963,-1.395639 0.0921,-2.23885 z m -3.13413,0.219017 c 0,-0.64245 -0.2318,-1.168092 -0.5151,-1.168092 -0.28331,0 -0.83997,0.525642 -1.23703,1.168092 -0.39706,0.642452 -0.16527,1.168094 0.5151,1.168094 0.68037,0 1.23703,-0.525642 1.23703,-1.168094 z M 125.69696,216.17821 c -5.00711,-2.32888 -8.7607,-6.1065 -8.7607,-8.8168 0,-0.91842 -0.56149,-2.01686 -1.24773,-2.44098 -0.68625,-0.42414 -0.9709,-1.49254 -0.63256,-2.37424 0.33835,-0.88171 -0.17538,-2.04551 -1.14161,-2.58624 -1.39076,-0.7783 -1.50506,-1.64522 -0.5486,-4.16088 0.96076,-2.527 0.85205,-3.31442 -0.5309,-3.84511 -2.36679,-0.90822 -2.20147,-2.75358 0.24669,-2.75358 1.42679,0 1.62923,-0.35653 0.71916,-1.2666 -1.52636,-1.52636 -0.63136,-5.73146 1.22762,-5.76794 0.72813,-0.0143 0.11552,-0.95575 -1.36131,-2.09216 -2.9091,-2.23849 -2.53144,-6.05852 0.59895,-6.05852 1.07756,0 1.49328,-0.67458 1.07978,-1.75213 -0.36979,-0.96368 -0.0317,-1.76019 0.75109,-1.77002 0.88854,-0.0117 0.98449,-0.3404 0.25537,-0.87608 -1.17141,-0.86063 -1.69458,-10.78697 -0.56852,-10.78697 0.82194,0 0.5243,-12.69857 -0.31737,-13.54023 -0.37151,-0.37153 -0.10574,-2.31011 0.5908,-4.30797 0.9415,-2.70076 0.91701,-3.7489 -0.0954,-4.08636 -1.87554,-0.62519 -1.70515,-4.99231 0.39047,-10.00784 2.18971,-5.24058 2.18269,-5.43658 -0.19463,-5.43658 -1.07075,0 -1.55259,-0.39424 -1.07075,-0.87607 0.48184,-0.48185 1.48933,-0.87608 2.23884,-0.87608 0.74953,0 1.43788,-1.57692 1.52966,-3.50427 0.0918,-1.92736 0.25186,-3.50428 0.35578,-3.50428 0.10393,0 0.35205,-2.10257 0.55142,-4.67238 0.19938,-2.5698 0.75256,-5.59224 1.2293,-6.71654 0.57929,-1.366114 0.34103,-2.050094 -0.71829,-2.062034 -1.28593,-0.0145 -1.2732,-0.21533 0.0675,-1.06395 1.02371,-0.64802 1.75214,-3.41925 1.91423,-7.2827 0.14394,-3.430152 0.4036,-6.762277 0.57705,-7.404729 0.17346,-0.642451 -0.10488,-2.134235 -0.61855,-3.315072 -0.51758,-1.189831 -0.35519,-4.03269 0.36426,-6.376808 0.98305,-3.203098 0.96003,-4.4388 -0.0949,-5.09076 -0.97782,-0.604325 -0.7643,-1.102213 0.71633,-1.670385 1.36849,-0.525139 1.6516,-1.092353 0.80606,-1.614923 -0.94056,-0.581302 -0.80216,-2.729437 0.49729,-7.71835 1.09069,-4.187462 1.35364,-7.061836 0.66694,-7.290736 -0.6235,-0.207838 -0.82591,-1.916549 -0.44978,-3.797133 0.40311,-2.01559 0.0762,-4.151309 -0.79614,-5.202511 -0.81398,-0.980801 -1.15042,-2.112823 -0.74762,-2.515617 0.40278,-0.402794 -0.17937,-1.424653 -1.29367,-2.270809 -1.89067,-1.435679 -1.86994,-1.541461 0.31017,-1.583314 1.98202,-0.03808 1.80492,-0.41653 -1.16808,-2.496542 -1.92736,-1.348423 -2.58441,-2.149923 -1.46012,-1.781097 1.12429,0.368825 2.04415,0.161442 2.04415,-0.460836 -5e-5,-0.62229 -0.52569,-1.131439 -1.16814,-1.131439 -0.64245,0 -1.1681,-0.771969 -1.1681,-1.715485 0,-1.044964 -0.68484,-1.452675 -1.75213,-1.043119 -1.08991,0.418237 -1.75215,-0.007 -1.75215,-1.12603 0,-0.989117 -1.02602,-2.124049 -2.28006,-2.522065 -2.88283,-0.914978 -8.81011,-12.707393 -7.45691,-14.8356478 0.93914,-1.477065 9.73931,-2.248905 9.73775,-0.854086 -4.3e-4,0.374771 1.62239,0.681395 3.60627,0.681395 1.98386,0 4.07839,0.744659 4.65448,1.654792 0.57611,0.9101428 1.0555,1.2484578 1.06534,0.7518068 0.01,-0.4966488 1.30887,-0.05712 2.88674,0.976748 1.57788,1.033868 3.38532,1.560573 4.01653,1.170453 0.63124,-0.390108 1.57422,-0.04123 2.09554,0.775392 0.52132,0.816579 3.02575,2.535965 5.56538,3.820868 5.83592,2.952624 9.98364,6.740599 9.98364,9.117727 0,1.012713 0.45593,2.123055 1.01316,2.467444 0.55724,0.344401 1.29401,3.117805 1.63726,6.16314 0.34324,3.045324 1.20143,5.729403 1.90708,5.964623 1.78103,0.593683 1.60449,5.677598 -0.32634,9.397496 -0.88513,1.705252 -2.11296,5.284839 -2.72853,7.954632 -0.93719,4.064719 -0.84333,4.748299 0.57711,4.203232 1.40387,-0.538724 1.46141,-0.211998 0.33373,1.89508 -0.74942,1.400309 -1.7838,2.285689 -2.29864,1.967501 -1.28784,-0.795928 -3.89307,8.137929 -4.23717,14.530202 -0.15563,2.89103 -0.81352,7.493481 -1.46196,10.22766 -0.68982,2.908622 -0.74344,5.240442 -0.12925,5.620042 1.09154,0.6746 0.49609,4.766494 -1.44573,9.934904 -1.47714,3.9316 -2.02037,16.32713 -1.07534,24.53715 0.51253,4.45273 0.3036,6.93334 -0.65981,7.83328 -1.48956,1.39147 -0.91803,10.34587 0.80081,12.54625 0.51459,0.65875 1.24829,3.80255 1.63046,6.98622 0.38217,3.18368 1.14346,6.23711 1.69175,6.7854 1.06305,1.06305 0.32777,5.47068 -0.91326,5.47461 -1.19747,0.003 -1.41365,7.98095 -0.23601,8.70879 0.65514,0.40488 0.65659,2.12819 0.003,4.40459 -0.82092,2.86239 -0.68272,3.95759 0.58919,4.66938 1.41371,0.79115 1.3339,1.93029 -0.53484,7.63369 -1.20808,3.68708 -2.75545,8.88799 -3.43862,11.5576 -0.68316,2.66958 -2.32317,6.08626 -3.64445,7.5926 l -2.40234,2.73878 0.6877,-3.21225 c 0.416,-1.94313 0.19017,-3.21227 -0.57158,-3.21227 -0.6926,0 -1.02715,0.39424 -0.74346,0.87607 0.69649,1.18288 -1.23869,6.13902 -2.38448,6.10685 -0.5023,-0.0141 -3.01603,-1.00359 -5.58584,-2.19885 z m 150.48665,-54.33492 c 0.46502,-1.21182 0.061,-1.84524 -1.17693,-1.84524 -2.13954,0 -12.05349,-5.97845 -12.05669,-7.27059 -0.001,-0.46534 -1.71042,-1.72343 -3.79838,-2.79575 -2.08797,-1.07231 -4.87586,-3.05697 -6.19531,-4.41035 -4.38058,-4.49317 -9.82979,-8.88518 -11.02395,-8.88518 -0.64802,0 -1.17822,-0.51563 -1.17822,-1.14584 0,-0.63021 -1.3141,-1.47564 -2.92022,-1.87877 -1.99635,-0.50103 -2.90849,-1.52438 -2.88309,-3.23451 0.0364,-2.45088 0.072,-2.45562 1.75213,-0.23415 0.94325,1.24708 1.715,1.67981 1.715,0.96162 0,-3.84356 12.65584,-5.4971 25.11401,-3.28124 1.92735,0.34279 6.36219,0.92304 9.85521,1.28941 7.08787,0.74341 14.09069,3.27357 14.09069,5.09104 0,0.65506 0.78847,0.88847 1.75215,0.51868 1.10412,-0.42371 1.75213,0.0136 1.75213,1.18249 0,1.02017 1.31411,2.18468 2.92024,2.5878 1.60612,0.4031 2.92023,1.53786 2.92023,2.52168 0,0.98382 0.85174,2.41157 1.89276,3.17278 1.12904,0.82559 1.95385,3.2341 2.04415,5.96923 0.13528,4.09658 -0.12867,4.55558 -2.4768,4.30698 -1.71844,-0.18193 -2.62821,0.35072 -2.62821,1.53883 0,1.31994 -0.71905,1.61922 -2.6282,1.09384 -2.54526,-0.70041 -2.55716,-0.66641 -0.3773,1.07731 2.84307,2.27423 1.68667,3.61945 -1.59954,1.86073 -1.3727,-0.73465 -2.11001,-1.90212 -1.66056,-2.62934 0.52687,-0.85249 0.13149,-1.04824 -1.13539,-0.5621 -1.53388,0.58861 -1.94375,0.041 -1.94375,-2.59676 0,-1.89367 -0.75952,-3.63409 -1.75214,-4.015 -1.87988,-0.72138 -2.45309,1.01942 -0.6937,2.10678 1.17674,0.72727 0.31732,5.32419 -0.9954,5.32419 -0.45793,0 -0.79084,1.1827 -0.73984,2.62822 0.0726,2.05708 -0.6402,2.71189 -3.2802,3.01333 -2.67668,0.3056 -3.22679,0.004 -2.66488,-1.46012 z M 5.543043,76.740597 c -2.322466,-1.698232 -1.495856,-5.517628 1.194143,-5.517628 0.928366,0 2.217632,-1.519503 2.865049,-3.376677 0.835022,-2.395339 1.774953,-3.220327 3.2342,-2.838736 1.573505,0.411485 2.391916,-0.579607 3.481383,-4.215927 1.054509,-3.519629 2.036555,-4.753871 3.782533,-4.753871 1.297028,0 2.055818,-0.489326 1.686199,-1.087379 -0.369631,-0.598063 -0.11231,-1.43332 0.571823,-1.856135 0.864976,-0.534577 0.827206,-1.270791 -0.12397,-2.416901 -1.074506,-1.294702 -0.990639,-1.648145 0.391087,-1.648145 0.967415,0 2.033158,-1.048631 2.368319,-2.330286 0.335161,-1.281668 1.57916,-2.687538 2.764442,-3.12417 1.185283,-0.436634 2.581597,-1.501632 3.102926,-2.366651 0.521318,-0.865031 1.453635,-1.260186 2.07179,-0.878137 0.618166,0.382036 2.177583,-1.6873 3.465358,-4.598538 1.572568,-3.555045 2.881139,-5.086053 3.985056,-4.662444 1.138877,0.437031 2.092672,-0.868021 3.105812,-4.249557 0.923276,-3.081629 2.390691,-5.233303 3.981542,-5.838142 1.385656,-0.526833 3.190882,-2.579021 4.011604,-4.56041 0.820721,-1.981403 2.233413,-3.602552 3.1393,-3.602552 0.905899,0 1.949653,-0.788463 2.319453,-1.75214 0.369801,-0.963677 1.315759,-1.7521398 2.102139,-1.7521398 0.78638,0 2.133072,-1.314105 2.99265,-2.920233 0.859567,-1.606128 2.245999,-2.920233 3.080957,-2.920233 0.936023,0 1.232105,-0.745278 0.772197,-1.9437537 -0.516239,-1.34530391 -0.306293,-1.67207831 0.681886,-1.06135251 0.938568,0.58006341 1.89478,-0.3548554 2.790776,-2.72861849 0.749653,-1.9860626 1.810956,-3.6110196 2.358447,-3.6110196 1.397252,0 4.332847,-3.0908684 4.332847,-4.5620109 0,-0.673535 1.330518,-2.096378 2.95669,-3.1619 1.626183,-1.065512 2.682023,-2.211959 2.346319,-2.547658 -0.335704,-0.335698 -0.02492,-1.315787 0.690618,-2.177956 0.956947,-1.153049 0.954264,-1.567593 -0.0096,-1.567593 -0.721115,0 -0.259833,-1.051284 1.025066,-2.336186 1.28491,-1.284903 2.842315,-2.336187 3.460917,-2.336187 1.330006,0 10.556208,-9.393956 10.556208,-10.74815 0,-0.513027 0.70863,-0.932781 1.57473,-0.932781 0.86611,0 2.522861,-2.102568 3.681681,-4.672373 1.15882,-2.569805 2.92071,-4.672372 3.91531,-4.672372 1.29933,0 1.45183,-0.356525 0.54175,-1.266599 -1.74609,-1.7461 -0.54725,-5.737148 1.48867,-4.955892 0.89495,0.343431 1.95068,-0.218585 2.34606,-1.248925 0.39537,-1.030328 1.65768,-1.87333 2.8051,-1.87333 1.14743,0 2.40159,-0.821776 2.78701,-1.826173 0.41954,-1.093312 1.29004,-1.472089 2.16914,-0.943866 1.01325,0.608834 0.97147,0.269724 -0.13478,-1.094059 -1.47854,-1.822763 -1.01902,-2.506402 1.40125,-2.084649 0.5314,0.09263 1.53271,-1.332491 2.2251,-3.166877 0.69241,-1.834384 2.32619,-3.819068 3.63063,-4.410392 1.32867,-0.602327 3.1115,-3.323306 4.05393,-6.187226 1.05679,-3.211427 2.53307,-5.334576 3.97061,-5.710504 1.75901,-0.459983 1.92776,-0.82701 0.72951,-1.586562 -1.21972,-0.773173 -1.14496,-0.99205 0.34359,-1.006043 1.04635,-0.0094 2.55564,-1.59481 3.35397,-3.522163 0.79834,-1.927354 2.30762,-3.545782 3.35397,-3.596501 1.21062,-0.05864 1.37148,-0.306473 0.44233,-0.681384 -0.80307,-0.324041 -1.46011,-1.054507 -1.46011,-1.623264 0,-0.568744 0.78846,-0.73153 1.75213,-0.361735 0.96368,0.369806 1.75215,0.09052 1.75215,-0.620701 0,-0.711194 -0.52564,-1.293067 -1.1681,-1.293067 -0.64245,0 -1.16809,-0.581874 -1.16809,-1.293068 0,-0.711182 0.78846,-0.990508 1.75214,-0.620701 0.96368,0.369795 1.75213,0.163206 1.75213,-0.459073 0,-0.622289 -0.52564,-1.131437 -1.16808,-1.131437 -1.5836,0 -1.49035,-5.503423 0.11003,-6.492493 0.70295,-0.43445 1.04218,-2.02407 0.75382,-3.53247 -0.28835,-1.50841 0.0564,-3.02372 0.76607,-3.36735 0.89262,-0.43222 0.84029,-0.83482 -0.16977,-1.30619 -0.80307,-0.37476 -1.46012,-1.68887 -1.46012,-2.92023 -3e-5,-1.23137 -0.49263,-2.23885 -1.09469,-2.23885 -0.60206,0 -0.7961,-1.83974 -0.43122,-4.08833 0.43058,-2.65329 0.1998,-4.08833 -0.65748,-4.08833 -0.72651,0 -1.32092,-0.70769 -1.32092,-1.57267 0,-0.86497 -0.89986,-3.36177 -1.99969,-5.54845 -1.09982,-2.18666 -1.84701,-5.18629 -1.66043,-6.66581 0.18659,-1.47953 -0.30443,-3.46563 -1.09114,-4.41355 -1.24651,-1.50196 -0.2595,-1.64663 7.67855,-1.12552 8.65355,0.56807 15.76219,2.54761 15.76219,4.38928 0,0.46546 0.78847,0.54372 1.75215,0.17393 1.16708,-0.44785 1.75811,0.052 1.77002,1.49677 0.0138,1.67851 0.24717,1.80719 1.03163,0.56888 0.85235,-1.3455 1.17492,-1.3346 2.02628,0.0685 0.55689,0.91782 3.1151,2.76455 5.6849,4.10385 2.56981,1.33929 4.51947,3.08129 4.33259,3.8711 -0.20474,0.86521 0.37565,1.16147 1.46011,0.74533 0.98995,-0.37989 1.79991,-0.24532 1.79991,0.29902 0,0.54435 1.57693,1.64291 3.50428,2.44125 1.92736,0.79832 3.50428,1.9444 3.50428,2.54683 0,0.60242 0.52564,0.77045 1.1681,0.3734 0.64244,-0.39706 1.16808,0.11406 1.16808,1.13581 0,1.02176 0.81868,2.17189 1.81927,2.55586 1.00061,0.38397 1.52955,1.45312 1.17545,2.37591 -0.47517,1.23827 -0.0334,1.48405 1.68616,0.93828 2.07354,-0.65812 2.20827,-0.41936 1.22406,2.16932 -0.81217,2.1362 -0.6758,3.26581 0.51346,4.25281 0.89067,0.73919 1.33158,2.09401 0.97981,3.01071 -0.35178,0.9167 -0.0577,1.66674 0.65347,1.66674 0.71119,0 1.29307,1.06778 1.29307,2.37283 0,1.30508 0.75528,2.66269 1.67838,3.01691 0.92312,0.35424 1.41855,1.3212 1.10097,2.1488 -0.31758,0.827611 0.27456,1.831679 1.31588,2.23126 1.04132,0.399593 1.56385,1.259601 1.16119,1.911129 -0.40266,0.651527 0.0897,1.499937 1.09406,1.885361 1.0044,0.385424 1.82617,1.664789 1.82617,2.843045 0,1.178256 0.56149,2.489289 1.24773,2.913411 0.68625,0.424135 0.9709,1.492531 0.63256,2.374231 -0.33835,0.881712 0.19461,2.056277 1.18433,2.610151 1.61663,0.9047 1.61014,1.460256 -0.0639,5.466653 -1.02484,2.452785 -2.20802,4.114947 -2.62929,3.693673 -0.42126,-0.421272 -1.65496,0.03866 -2.74154,1.021942 -1.50899,1.365618 -2.69412,1.514702 -5.01783,0.631226 -2.07808,-0.790087 -3.28535,-0.763314 -3.80931,0.08445 -0.42428,0.6865 -2.26976,0.940607 -4.12969,0.568616 -1.86532,-0.373043 -3.36255,-0.16539 -3.36255,0.466396 0,0.62639 -1.31411,1.138891 -2.92024,1.138891 -1.60612,0 -2.92023,0.441142 -2.92023,0.980311 0,0.539156 -1.57693,0.886488 -3.50428,0.771829 -1.92735,-0.114707 -3.50428,0.126773 -3.50428,0.536528 0,1.234009 -8.96127,10.163252 -10.97536,10.936132 -1.03052,0.395447 -1.87366,1.261132 -1.87366,1.923757 0,0.662612 -0.78847,1.204747 -1.75215,1.204747 -0.96367,0 -1.75214,0.525642 -1.75214,1.168094 0,0.64245 -0.69684,1.168093 -1.54853,1.168093 -0.85167,0 -2.78305,1.314104 -4.29193,2.920232 -1.50889,1.606128 -3.43024,2.920233 -4.26969,2.920233 -0.83944,0 -1.85021,1.290696 -2.24615,2.868218 -0.39593,1.577522 -2.63992,4.287976 -4.98664,6.023214 -2.34673,1.735237 -6.75177,5.700961 -9.78897,8.812714 -3.03723,3.111741 -5.87833,5.657717 -6.31358,5.657717 -0.43526,0 -4.12564,3.40053 -8.20085,7.556733 -4.38028,4.4673491 -8.06771,7.3041457 -9.01954,6.9388825 -1.01456,-0.3893139 -1.87865,0.4522272 -2.33619,2.2752354 -0.77265,3.0784507 -8.356341,10.8697603 -10.121841,10.3989373 -0.5783,-0.154212 -1.60508,0.754039 -2.28172,2.01836 -1.26656,2.3665908 -6.708572,8.1908328 -7.653284,8.1908328 -0.292024,0 -2.674165,2.143206 -5.293638,4.762689 -3.011818,3.011812 -5.421431,4.509904 -6.554568,4.07508 -1.25519,-0.481663 -1.588978,-0.158849 -1.114439,1.077777 0.372591,0.970965 0.195379,1.765385 -0.393812,1.765385 -0.589192,0 -2.509635,1.333052 -4.267647,2.96232 -1.758022,1.629279 -3.962024,2.668532 -4.89778,2.309449 -1.400691,-0.537498 -1.440463,-0.338491 -0.225035,1.126007 1.209242,1.457043 1.16307,1.778877 -0.255212,1.778877 -0.952347,0 -2.718398,1.314105 -3.924541,2.920233 -1.206154,1.606128 -2.603171,2.920232 -3.104491,2.920232 -0.50132,0 -2.698124,1.839747 -4.881787,4.088326 -2.183674,2.24858 -4.321346,4.088327 -4.750395,4.088327 -1.779096,0 -14.592395,10.985214 -15.257467,13.080669 -0.396869,1.25042 -1.41053,2.00912 -2.252591,1.68599 -0.84205,-0.323129 -3.637746,1.215787 -6.212645,3.419803 -2.574899,2.204017 -5.255123,4.007307 -5.956059,4.007307 -0.700947,0 -1.274432,0.525642 -1.274432,1.168093 0,0.642452 -0.804962,1.168094 -1.788807,1.168094 -0.983835,0 -2.091362,0.788463 -2.461163,1.75214 -0.821647,2.141196 -1.707303,2.194356 -4.351056,0.261208 z M 191.11018,48.766869 c -2.56981,-0.624358 -5.58511,-1.609224 -6.70069,-2.188575 -1.11558,-0.579351 -3.09717,-1.053374 -4.40356,-1.053374 -2.38895,0 -11.61351,-5.20201 -13.0031,-7.332834 -0.41,-0.628714 -1.24023,-0.837336 -1.84495,-0.463604 -1.52538,0.942744 -1.0567,-3.624839 0.5353,-5.216833 0.71274,-0.712735 2.65898,-1.29587 4.32501,-1.29587 1.66603,0 3.31341,-0.459937 3.66083,-1.022082 0.34741,-0.562145 1.65195,-1.022082 2.89893,-1.022082 1.24699,0 2.26724,-0.585296 2.26724,-1.300672 0,-0.784935 1.40989,-1.093743 3.55572,-0.778802 1.95563,0.287023 3.82641,0.08387 4.15727,-0.451468 0.33084,-0.535337 1.62894,-0.973337 2.88465,-0.973337 2.15181,0 6.8072,-2.082056 8.09186,-3.618963 0.32122,-0.384302 2.92335,-1.064413 5.78252,-1.511348 2.85915,-0.446948 5.88159,-1.379566 6.71653,-2.072514 1.1071,-0.91881 1.51807,-0.866222 1.51807,0.194266 0,1.084048 0.39896,1.123028 1.56759,0.15316 0.86217,-0.715539 1.90076,-0.967824 2.30795,-0.560614 0.40721,0.407197 1.53472,0.08107 2.50557,-0.724627 0.98688,-0.819031 3.0058,-1.153609 4.57882,-0.758805 1.86309,0.4676 3.02794,0.147682 3.44799,-0.946985 0.37656,-0.981303 1.57393,-1.407459 2.9462,-1.048609 1.7572,0.459528 2.40488,-0.05268 2.69968,-2.134831 0.2133,-1.506664 0.91347,-2.573507 1.55592,-2.370761 0.64245,0.202734 1.02584,1.069471 0.85199,1.926068 -0.25504,1.256588 0.64754,1.317446 4.67237,0.315035 2.74366,-0.683334 5.2513,-1.598185 5.57252,-2.033007 0.8605,-1.1647878 21.89774,-3.8177958 23.31718,-2.9405348 0.66702,0.412255 1.21278,0.192887 1.21278,-0.48748 0,-0.680368 0.96367,-1.237034 2.1415,-1.237034 1.17783,0 2.53894,-0.394232 3.0247,-0.87607 1.30234,-1.291817 9.29289,-1.065511 10.31104,0.292023 0.55435,0.739135 1.26173,0.569388 1.92628,-0.462238 0.69118,-1.072998 1.78929,-1.310682 3.21225,-0.695296 2.00822,0.868501 2.01661,0.969822 0.11789,1.423953 -1.1243,0.268906 -2.04417,0.976023 -2.04417,1.571366 0,0.595353 -1.05128,1.082448 -2.33618,1.082448 -1.28491,0 -2.33619,0.525642 -2.33619,1.168093 0,0.642452 -0.84469,1.1680928 -1.87712,1.1680928 -1.13288,0 -1.62723,0.651154 -1.24686,1.642386 0.81219,2.11655 -2.77486,5.366174 -5.92338,5.366174 -1.34139,0 -2.61411,0.396532 -2.82826,0.881186 -0.68724,1.555316 -15.56929,8.560102 -18.95285,8.920844 -1.79766,0.19166 -3.68535,1.022981 -4.19485,1.847386 -0.5095,0.824405 -1.48441,1.154029 -2.16646,0.732499 -0.68205,-0.421529 -1.81312,0.304324 -2.51351,1.613009 -0.95779,1.789647 -1.98896,2.199846 -4.16014,1.654919 -2.32793,-0.58428 -2.7469,-0.360205 -2.16448,1.157557 0.56678,1.477031 -0.0441,1.88209 -2.83809,1.88209 -1.95818,0 -3.8938,0.539577 -4.30138,1.199071 -0.40758,0.659493 -1.35848,1.12811 -2.11311,1.041367 -1.94269,-0.223293 -6.62845,1.390615 -6.62845,2.283027 0,0.865954 -9.44081,4.967783 -12.26498,5.328875 -0.64245,0.08212 -3.20345,1.052826 -5.69109,2.157072 -4.96816,2.205312 -5.10254,2.211866 -11.8303,0.577283 z"
       id="path3758"
       inkscape:connector-curvature="0"
       sodipodi:nodetypes="cscccssccccssssscssscscccccsccccccccccsscccscccsccccccccscssssccsscscccccscscccscscssssccssccccccccscsccsccscccscsscsccssccscscsssccccccsccsccssccscccccccscscccscsscccccccccscccccscsccccccccssscccscssccsccscccssscscsssccccscssccscscccccsscccsssccscsccssssccscccccsscccccccssscscccsccccsccccsccccccsccccsccssssscscccccssscccsccsccscccccscscsccccsccsscsscccccsscscccscccscccccscccccsssssccccccscccssscccsccccscccsccsccccsccccssccccccscssccscssscccccssssscscsccsssccscccsccccssscssccccscccscscccccccscsscscccscccccssccssscccscccccccsccccsccccscccccscccsscccsccscscssccscccccsccsccccsscsscccscscccccccssscscsssscccscssssssccscccccccccccccscssscsscccccscsscscsscscccccscscscsccccsscccsssccccccsccssscscsssscscscssccccscccsscsscscsscssssccccsscccssssscscccsccccccccscccssccccssssscscscscccsscsccc" />
  </g>
</svg>
