<?xml version="1.0" encoding="UTF-8" standalone="no"?>
<svg
   xmlns:dc="http://purl.org/dc/elements/1.1/"
   xmlns:cc="http://creativecommons.org/ns#"
   xmlns:rdf="http://www.w3.org/1999/02/22-rdf-syntax-ns#"
   xmlns:svg="http://www.w3.org/2000/svg"
   xmlns="http://www.w3.org/2000/svg"
   id="svg8"
   version="1.1"
   viewBox="0 0 541.86665 528.10835"
   height="1996"
   width="2048">
  <defs
     id="defs2" />
  <metadata
     id="metadata5">
    <rdf:RDF>
      <cc:Work
         rdf:about="">
        <dc:format>image/svg+xml</dc:format>
        <dc:type
           rdf:resource="http://purl.org/dc/dcmitype/StillImage" />
        <dc:title></dc:title>
      </cc:Work>
    </rdf:RDF>
  </metadata>
  <g
     transform="translate(0,231.10835)"
     id="layer1">
    <path
       id="path3758"
       d="m 126.45291,228.27345 c -5.00711,-2.32888 -8.7607,-6.1065 -8.7607,-8.8168 0,-0.91842 -0.56149,-2.01686 -1.24773,-2.44098 -0.68625,-0.42414 -0.9709,-1.49254 -0.63256,-2.37424 0.33835,-0.88171 -0.17538,-2.04551 -1.14161,-2.58624 -1.39076,-0.7783 -1.50506,-1.64522 -0.5486,-4.16088 0.96076,-2.527 0.85205,-3.31442 -0.5309,-3.84511 -2.36679,-0.90822 -2.20147,-2.75358 0.24669,-2.75358 1.42679,0 1.62923,-0.35653 0.71916,-1.2666 -1.52636,-1.52636 -0.63136,-5.73146 1.22762,-5.76794 0.72813,-0.0143 0.11552,-0.95575 -1.36131,-2.09216 -2.9091,-2.23849 -2.53144,-6.05852 0.59895,-6.05852 1.07756,0 1.49328,-0.67458 1.07978,-1.75213 -0.36979,-0.96368 -0.0317,-1.76019 0.75109,-1.77002 0.88854,-0.0117 0.98449,-0.3404 0.25537,-0.87608 -1.17141,-0.86063 -1.69458,-10.78697 -0.56852,-10.78697 0.82194,0 0.5243,-12.69857 -0.31737,-13.54023 -0.37151,-0.37153 -0.10574,-2.31011 0.5908,-4.30797 0.9415,-2.70076 0.91701,-3.7489 -0.0954,-4.08636 -1.87554,-0.62519 -1.70515,-4.99231 0.39047,-10.00784 2.18971,-5.24058 2.18269,-5.43658 -0.19463,-5.43658 -1.07075,0 -1.55259,-0.39424 -1.07075,-0.87607 0.48184,-0.48185 1.48933,-0.87608 2.23884,-0.87608 0.74953,0 1.43788,-1.57692 1.52966,-3.50427 0.0918,-1.92736 0.25186,-3.50428 0.35578,-3.50428 0.10393,0 0.35205,-2.10257 0.55142,-4.67238 0.19938,-2.5698 0.75256,-5.59224 1.2293,-6.71654 0.57929,-1.36612 0.34103,-2.0501 -0.71829,-2.06204 -1.28593,-0.0145 -1.2732,-0.21533 0.0675,-1.06395 1.02371,-0.64802 1.75214,-3.41925 1.91423,-7.2827 0.14394,-3.430148 0.4036,-6.762273 0.57705,-7.404725 0.17346,-0.642451 -0.10488,-2.134235 -0.61855,-3.315072 -0.51758,-1.189831 -0.35519,-4.03269 0.36426,-6.376808 0.98305,-3.203098 0.96003,-4.4388 -0.0949,-5.09076 -0.97782,-0.604325 -0.7643,-1.102213 0.71633,-1.670385 1.36849,-0.525139 1.6516,-1.092353 0.80606,-1.614923 -0.94056,-0.581302 -0.80216,-2.729437 0.49729,-7.71835 1.09069,-4.187462 1.35364,-7.061836 0.66694,-7.290736 -0.6235,-0.207838 -0.82591,-1.916549 -0.44978,-3.797133 0.40311,-2.01559 0.0762,-4.151309 -0.79614,-5.202511 -0.81398,-0.980801 -1.15042,-2.112823 -0.74762,-2.515617 0.40278,-0.402794 -0.17937,-1.424653 -1.29367,-2.270809 -1.89067,-1.435679 -1.86994,-1.541461 0.31017,-1.583314 1.98202,-0.03808 1.80492,-0.41653 -1.16808,-2.496542 -1.92736,-1.348423 -2.58441,-2.149923 -1.46012,-1.781097 1.12429,0.368825 2.04415,0.161442 2.04415,-0.460836 -5e-5,-0.62229 -0.52569,-1.131439 -1.16814,-1.131439 -0.64245,0 -1.1681,-0.771969 -1.1681,-1.715485 0,-1.044964 -0.68484,-1.452675 -1.75213,-1.043119 -1.08991,0.418237 -1.75215,-0.007 -1.75215,-1.12603 0,-0.989117 -1.02602,-2.124049 -2.28006,-2.522065 -2.88283,-0.914978 -8.81011,-12.707393 -7.45691,-14.835648 0.93914,-1.477065 9.73931,-2.248905 9.73775,-0.854086 -4.3e-4,0.374771 1.62239,0.681395 3.60627,0.681395 1.98386,0 4.07839,0.744659 4.65448,1.654792 0.57611,0.910143 1.0555,1.248458 1.06534,0.751807 0.01,-0.496649 1.30887,-0.05712 2.88674,0.976748 1.57788,1.033868 3.38532,1.560573 4.01653,1.170453 0.63124,-0.390108 1.57422,-0.04123 2.09554,0.775392 0.52132,0.816579 3.02575,2.535965 5.56538,3.820868 5.83592,2.952624 9.98364,6.740599 9.98364,9.117727 0,1.012713 0.45593,2.123055 1.01316,2.467444 0.55724,0.344401 1.29401,3.117805 1.63726,6.16314 0.34324,3.045324 1.20143,5.729403 1.90708,5.964623 1.78103,0.593683 1.60449,5.677598 -0.32634,9.397496 -0.88513,1.705252 -2.11296,5.284839 -2.72853,7.954632 -0.93719,4.064719 -0.84333,4.748299 0.57711,4.203232 1.40387,-0.538724 1.46141,-0.211998 0.33373,1.89508 -0.74942,1.400309 -1.7838,2.285689 -2.29864,1.967501 -1.28784,-0.795928 -3.89307,8.137929 -4.23717,14.530202 -0.15563,2.89103 -0.81352,7.493478 -1.46196,10.227658 -0.68982,2.90862 -0.74344,5.24044 -0.12925,5.62004 1.09154,0.6746 0.49609,4.7665 -1.44573,9.93491 -1.47714,3.9316 -2.02037,16.32713 -1.07534,24.53715 0.51253,4.45273 0.3036,6.93334 -0.65981,7.83328 -1.48956,1.39147 -0.91803,10.34587 0.80081,12.54625 0.51459,0.65875 1.24829,3.80255 1.63046,6.98622 0.38217,3.18368 1.14346,6.23711 1.69175,6.7854 1.06305,1.06305 0.32777,5.47068 -0.91326,5.47461 -1.19747,0.003 -1.41365,7.98095 -0.23601,8.70879 0.65514,0.40488 0.65659,2.12819 0.003,4.40459 -0.82092,2.86239 -0.68272,3.95759 0.58919,4.66938 1.41371,0.79115 1.3339,1.93029 -0.53484,7.63369 -1.20808,3.68708 -2.75545,8.88799 -3.43862,11.5576 -0.68316,2.66958 -2.32317,6.08626 -3.64445,7.5926 l -2.40234,2.73878 0.6877,-3.21225 c 0.416,-1.94313 0.19017,-3.21227 -0.57158,-3.21227 -0.6926,0 -1.02715,0.39424 -0.74346,0.87607 0.69649,1.18288 -1.23869,6.13902 -2.38448,6.10685 -0.5023,-0.0141 -3.01603,-1.00359 -5.58584,-2.19885 z M 6.2989954,88.835835 c -2.3224661,-1.698232 -1.4958561,-5.517628 1.1941429,-5.517628 0.928366,0 2.217632,-1.519503 2.8650487,-3.376677 0.835022,-2.395339 1.774953,-3.220327 3.2342,-2.838736 1.573505,0.411485 2.391916,-0.579607 3.481383,-4.215927 1.054509,-3.519629 2.036555,-4.753871 3.782533,-4.753871 1.297028,0 2.055818,-0.489326 1.686199,-1.087379 -0.369631,-0.598063 -0.11231,-1.43332 0.571823,-1.856135 0.864976,-0.534577 0.827206,-1.270791 -0.12397,-2.416901 -1.074506,-1.294702 -0.990639,-1.648145 0.391087,-1.648145 0.967415,0 2.033158,-1.048631 2.368319,-2.330286 0.335161,-1.281668 1.57916,-2.687538 2.764442,-3.12417 1.185283,-0.436634 2.581597,-1.501632 3.102926,-2.366651 0.521318,-0.865031 1.453635,-1.260186 2.07179,-0.878137 0.618166,0.382036 2.177583,-1.6873 3.465358,-4.598538 1.572568,-3.555045 2.881139,-5.086053 3.985056,-4.662444 1.138877,0.437031 2.092672,-0.868021 3.105812,-4.249557 0.923276,-3.081629 2.390691,-5.233303 3.981542,-5.838142 1.385656,-0.526833 3.190882,-2.579021 4.011604,-4.56041 0.820721,-1.981403 2.233413,-3.602552 3.1393,-3.602552 0.905899,0 1.949653,-0.788463 2.319453,-1.75214 0.369801,-0.963677 1.315759,-1.75214 2.102139,-1.75214 0.78638,0 2.133072,-1.314105 2.99265,-2.920233 0.859567,-1.606128 2.245999,-2.920233 3.080957,-2.920233 0.936023,0 1.232105,-0.745278 0.772197,-1.943754 -0.516239,-1.345304 -0.306293,-1.672078 0.681886,-1.061352 0.938568,0.580063 1.89478,-0.354856 2.790776,-2.7286184 0.749653,-1.9860626 1.810956,-3.6110196 2.358447,-3.6110196 1.397252,0 4.332847,-3.0908684 4.332847,-4.5620109 0,-0.67353501 1.330518,-2.09637802 2.95669,-3.1619 1.626183,-1.065512 2.682023,-2.211959 2.346319,-2.547658 -0.335704,-0.335698 -0.02492,-1.315787 0.690618,-2.177956 0.956947,-1.153049 0.954264,-1.567593 -0.0096,-1.567593 -0.721115,0 -0.259833,-1.051284 1.025066,-2.3361861 1.28491,-1.284903 2.842315,-2.336187 3.460917,-2.336187 1.330006,0 10.556208,-9.393956 10.556208,-10.74815 0,-0.513027 0.70863,-0.932781 1.57473,-0.932781 0.866109,0 2.522859,-2.102568 3.681679,-4.672373 1.15882,-2.569805 2.92071,-4.672372 3.91531,-4.672372 1.29933,0 1.45183,-0.356525 0.54175,-1.266599 -1.74609,-1.7461 -0.54725,-5.737148 1.48867,-4.955892 0.89495,0.343431 1.95068,-0.218585 2.34606,-1.248925 0.39537,-1.030328 1.65768,-1.87333 2.8051,-1.87333 1.14743,0 2.40159,-0.821776 2.78701,-1.826173 0.41954,-1.093312 1.29004,-1.472089 2.16914,-0.943866 1.01325,0.608834 0.97147,0.269724 -0.13478,-1.094059 -1.47854,-1.822763 -1.01902,-2.506402 1.40125,-2.084649 0.5314,0.09263 1.53271,-1.332491 2.2251,-3.166877 0.69241,-1.834384 2.32619,-3.819068 3.63063,-4.410392 1.32867,-0.602327 3.1115,-3.323306 4.05393,-6.187226 1.05679,-3.211427 2.53307,-5.334576 3.97061,-5.710504 1.75901,-0.459983 1.92776,-0.82701 0.72951,-1.586562 -1.21972,-0.773173 -1.14496,-0.99205 0.34359,-1.006043 1.04635,-0.0094 2.55564,-1.59481 3.35397,-3.522163 0.79834,-1.927354 2.30762,-3.545782 3.35397,-3.596501 1.21062,-0.05864 1.37148,-0.306473 0.44233,-0.681384 -0.80307,-0.324041 -1.46011,-1.054507 -1.46011,-1.623264 0,-0.568744 0.78846,-0.73153 1.75213,-0.361735 0.96368,0.369806 1.75215,0.09052 1.75215,-0.620701 0,-0.711194 -0.52564,-1.293067 -1.1681,-1.293067 -0.64245,0 -1.16809,-0.581874 -1.16809,-1.293068 0,-0.711182 0.78846,-0.990508 1.75214,-0.620701 0.96368,0.369795 1.75213,0.163206 1.75213,-0.459073 0,-0.622289 -0.52564,-1.131437 -1.16808,-1.131437 -1.5836,0 -1.49035,-5.503423 0.11003,-6.492493 0.70295,-0.43445 1.04218,-2.02407 0.75382,-3.53247 -0.28835,-1.50841 0.0564,-3.02372 0.76607,-3.367346 0.89262,-0.43222 0.84029,-0.834822 -0.16977,-1.306192 -0.80307,-0.37476 -1.46012,-1.68887 -1.46012,-2.92023 -3e-5,-1.23137 -0.49263,-2.23885 -1.09469,-2.23885 -0.60206,0 -0.7961,-1.83974 -0.43122,-4.08833 0.43058,-2.65329 0.1998,-4.08833 -0.65748,-4.08833 -0.72651,0 -1.32092,-0.70769 -1.32092,-1.57267 0,-0.86497 -0.89986,-3.36177 -1.99969,-5.54845 -1.09982,-2.18666 -1.84701,-5.18629 -1.66043,-6.66581 0.18659,-1.47953 -0.30443,-3.46563 -1.09114,-4.41355 -1.24651,-1.50196 -0.2595,-1.64663 7.67855,-1.12552 8.65355,0.56807 15.76219,2.54761 15.76219,4.38928 0,0.46546 0.78847,0.54372 1.75215,0.17393 1.16708,-0.44785 1.75811,0.052 1.77002,1.49677 0.0138,1.67851 0.24717,1.80719 1.03163,0.56888 0.85235,-1.3455 1.17492,-1.3346 2.02628,0.0685 0.55689,0.91782 3.1151,2.76455 5.6849,4.10385 2.56981,1.33929 4.51947,3.08129 4.33259,3.8711 -0.20474,0.86521 0.37565,1.16147 1.46011,0.74533 0.98995,-0.37989 1.79991,-0.24532 1.79991,0.29902 0,0.54435 1.57693,1.64291 3.50428,2.44125 1.92736,0.79832 3.50428,1.9444 3.50428,2.54683 0,0.60242 0.52564,0.77045 1.1681,0.3734 0.64244,-0.39706 1.16808,0.11406 1.16808,1.13581 0,1.02176 0.81868,2.17189 1.81927,2.55586 1.00061,0.38397 1.52955,1.45312 1.17545,2.37591 -0.47517,1.23827 -0.0334,1.48405 1.68616,0.93828 2.07354,-0.65812 2.20827,-0.41936 1.22406,2.16932 -0.81217,2.1362 -0.6758,3.265812 0.51346,4.252808 0.89067,0.73919 1.33158,2.09401 0.97981,3.01071 -0.35178,0.9167 -0.0577,1.66674 0.65347,1.66674 0.71119,0 1.29307,1.06778 1.29307,2.37283 0,1.30508 0.75528,2.66269 1.67838,3.01691 0.92312,0.35424 1.41855,1.3212 1.10097,2.1488 -0.31758,0.827611 0.27456,1.831679 1.31588,2.23126 1.04132,0.399593 1.56385,1.259601 1.16119,1.911129 -0.40266,0.651527 0.0897,1.499937 1.09406,1.885361 1.0044,0.385424 1.82617,1.664789 1.82617,2.843045 0,1.178256 0.56149,2.489289 1.24773,2.913411 0.68625,0.424135 0.9709,1.492531 0.63256,2.374231 -0.33835,0.881712 0.19461,2.056277 1.18433,2.610151 1.61663,0.9047 1.61014,1.460256 -0.0639,5.466653 -1.02484,2.452785 -2.20802,4.114947 -2.62929,3.693673 -0.42126,-0.421272 -1.65496,0.03866 -2.74154,1.021942 -1.50899,1.365618 -2.69412,1.514702 -5.01783,0.631226 -2.07808,-0.790087 -3.28535,-0.763314 -3.80931,0.08445 -0.42428,0.6865 -2.26976,0.940607 -4.12969,0.568616 -1.86532,-0.373043 -3.36255,-0.16539 -3.36255,0.466396 0,0.62639 -1.31411,1.138891 -2.92024,1.138891 -1.60612,0 -2.92023,0.441142 -2.92023,0.980311 0,0.539156 -1.57693,0.886488 -3.50428,0.771829 -1.92735,-0.114707 -3.50428,0.126773 -3.50428,0.536528 0,1.234009 -8.96127,10.163252 -10.97536,10.936132 -1.03052,0.395447 -1.87366,1.261132 -1.87366,1.923757 0,0.662612 -0.78847,1.204747 -1.75215,1.204747 -0.96367,0 -1.75214,0.525642 -1.75214,1.168094 0,0.64245 -0.69684,1.168093 -1.54853,1.168093 -0.85167,0 -2.78305,1.314104 -4.29193,2.920232 -1.50889,1.606128 -3.43024,2.920233 -4.26969,2.920233 -0.83944,0 -1.85021,1.290696 -2.24615,2.868218 -0.39593,1.577522 -2.63992,4.287976 -4.98664,6.023214 -2.34673,1.735237 -6.75177,5.700961 -9.78897,8.812714 -3.03723,3.111741 -5.87833,5.6577171 -6.31358,5.6577171 -0.43526,0 -4.12564,3.40053 -8.20085,7.556733 -4.38028,4.4673491 -8.06771,7.3041457 -9.01954,6.9388825 -1.01456,-0.3893139 -1.87865,0.4522272 -2.33619,2.2752354 -0.77265,3.07845 -8.356339,10.86976 -10.121839,10.398937 -0.5783,-0.154212 -1.60508,0.754039 -2.28172,2.01836 -1.26656,2.366591 -6.708572,8.190833 -7.653284,8.190833 -0.292024,0 -2.674165,2.143206 -5.293638,4.762689 -3.011818,3.011812 -5.421431,4.509904 -6.554568,4.07508 -1.25519,-0.481663 -1.588978,-0.158849 -1.114439,1.077777 0.372591,0.970965 0.195379,1.765385 -0.393812,1.765385 -0.589192,0 -2.509635,1.333052 -4.267647,2.96232 -1.758022,1.629279 -3.962024,2.668532 -4.89778,2.309449 -1.400691,-0.537498 -1.440463,-0.338491 -0.225035,1.126007 1.209242,1.457043 1.16307,1.778877 -0.255212,1.778877 -0.952347,0 -2.718398,1.314105 -3.924541,2.920233 -1.206154,1.606128 -2.603171,2.920232 -3.104491,2.920232 -0.50132,0 -2.698124,1.839747 -4.881787,4.088326 -2.183674,2.24858 -4.321346,4.088327 -4.750395,4.088327 -1.779096,0 -14.592395,10.985214 -15.257467,13.080669 -0.396869,1.25042 -1.41053,2.00912 -2.252591,1.68599 -0.84205,-0.323129 -3.637746,1.215787 -6.212645,3.419803 -2.574899,2.204017 -5.255123,4.007307 -5.956059,4.007307 -0.700947,0 -1.274432,0.525642 -1.274432,1.168093 0,0.642452 -0.804962,1.168094 -1.788807,1.168094 -0.983835,0 -2.091362,0.788463 -2.461163,1.75214 -0.8216467,2.141196 -1.7073027,2.194356 -4.3510556,0.261208 z"
       style="fill:#000000;stroke-width:1.16809309" />
  </g>
</svg>
