<?xml version="1.0" encoding="UTF-8" standalone="no"?>
<svg
   xmlns:dc="http://purl.org/dc/elements/1.1/"
   xmlns:cc="http://creativecommons.org/ns#"
   xmlns:rdf="http://www.w3.org/1999/02/22-rdf-syntax-ns#"
   xmlns:svg="http://www.w3.org/2000/svg"
   xmlns="http://www.w3.org/2000/svg"
   id="svg8"
   version="1.1"
   viewBox="0 0 67.733332 67.733335"
   height="256"
   width="256">
  <defs
     id="defs2" />
  <metadata
     id="metadata5">
    <rdf:RDF>
      <cc:Work
         rdf:about="">
        <dc:format>image/svg+xml</dc:format>
        <dc:type
           rdf:resource="http://purl.org/dc/dcmitype/StillImage" />
        <dc:title></dc:title>
      </cc:Work>
    </rdf:RDF>
  </metadata>
  <g
     transform="translate(0,-229.26665)"
     id="layer1">
    <path
       id="path21"
       d="m 23.020612,289.09627 c -0.422487,-0.68359 -0.662772,-5.96597 -0.533957,-11.7386 0.152168,-6.81977 -0.202629,-11.02206 -1.013049,-11.99855 -0.799788,-0.96369 -0.848256,-1.50283 -0.135097,-1.50283 0.611672,0 2.062487,1.20818 3.224024,2.68483 1.712209,2.17672 2.118274,4.33184 2.145665,11.38763 0.01856,4.78655 -0.214259,9.53703 -0.51741,10.55662 -0.635256,2.13653 -2.057862,2.41066 -3.170176,0.6109 z M 33.354574,277.2869 c -0.93567,-1.1274 0.53359,-1.64594 7.550325,-2.6647 4.791636,-0.6957 11.333872,-1.73289 14.538307,-2.30487 4.088177,-0.72972 6.695254,-0.68649 8.739347,0.14494 4.512656,1.83549 3.460566,3.04635 -2.648288,3.04794 -3.058769,8e-4 -9.613284,0.71519 -14.565593,1.58752 -11.016113,1.94048 -12.147596,1.95621 -13.614098,0.18917 z M 2.0629077,274.00169 c 0.3180736,-0.82889 1.2867131,-1.7789 2.1525334,-2.11114 0.8703714,-0.334 1.2341972,-1.15424 0.8137344,-1.83456 -0.4366958,-0.70658 -0.3009388,-0.94646 0.3188495,-0.56341 1.6805929,1.03867 9.469808,-8.93628 14.795045,-18.9467 4.63176,-8.70679 4.735103,-9.093 2.583724,-9.65559 -2.380498,-0.62252 -2.910397,-1.91884 -1.213141,-2.96779 0.565322,-0.3494 2.76128,0.95331 4.879911,2.89489 l 3.852064,3.53014 -3.184301,4.72263 c -1.751365,2.59744 -4.066501,6.6294 -5.144755,8.95989 -2.76883,5.98449 -8.532303,11.97631 -14.3721909,14.94162 -5.8306077,2.96061 -6.2527484,3.03993 -5.4814734,1.03002 z M 45.102732,257.85381 c -0.73495,-0.29593 -1.799236,-1.40311 -2.365082,-2.46039 -0.836846,-1.56366 -0.680505,-1.83125 0.837895,-1.43418 2.134811,0.55826 11.965898,-3.37831 13.126438,-5.2561 1.104858,-1.78771 3.284562,0.59934 2.807808,3.07492 -0.328182,1.70411 -1.948489,2.55564 -11.481803,6.03403 -0.873937,0.31887 -2.190295,0.33764 -2.925256,0.0417 z"
       style="fill:#FFFFFF;stroke-width:1.05931556" />
  </g>
</svg>
