<?xml version="1.0" encoding="iso-8859-1"?>
<!-- Generator: Adobe Illustrator 16.0.0, SVG Export Plug-In . SVG Version: 6.00 Build 0)  -->
<!DOCTYPE svg PUBLIC "-//W3C//DTD SVG 1.1//EN" "http://www.w3.org/Graphics/SVG/1.1/DTD/svg11.dtd">
<svg version="1.1" id="Capa_1" xmlns="http://www.w3.org/2000/svg" xmlns:xlink="http://www.w3.org/1999/xlink" x="0px" y="0px"
	 width="59.267px" height="59.267px" viewBox="0 0 59.267 59.267" style="enable-background:new 0 0 59.267 59.267;"
	 xml:space="preserve">
<g>
	<g>
		<path d="M3.515,33.716c5.024,4.239,10.048,8.479,15.072,12.721c1.755,1.481,5.333,5.001,6.634,1.2
			c0.051-0.07,0.086-0.146,0.086-0.233c0.024-0.081,0.021-0.148-0.002-0.205c-0.013-2.122-0.208-4.289,0.498-6.334
			c0.73-2.118,3.089-0.944,4.487-1.319c1.791-0.48,2.068-1.505,2.068-3.17c0-3.239,0-6.479,0-9.718c0-2.059,0.361-4.286-0.435-6.208
			c-0.197-0.475-1.084-0.692-1.5-0.732c-2.869-0.278-5.118-1.46-5.118-4.593c0-1.269,0.646-4.519-1.152-5.089
			c-3.042-0.965-7.41,4.553-9.314,6.161c-4.572,3.858-9.145,7.718-13.718,11.578C-1.764,30.211,1.609,32.106,3.515,33.716z
			 M12.406,39.028c-0.258-0.091-0.517-0.183-0.775-0.273c-0.042-0.016-0.061-0.015-0.098-0.025c-0.438-0.37-0.876-0.74-1.315-1.11
			c0.215,0.115,0.43,0.229,0.645,0.347c0.541,0.297,1.08,0.593,1.621,0.891C13.025,39.155,12.989,39.234,12.406,39.028z
			 M23.844,47.53c-0.082,0.284-0.349,0.335-0.721,0.248c-0.154-0.09-0.336-0.19-0.552-0.3c-0.439-0.223-0.879-0.445-1.319-0.667
			c-0.554-0.372-1.152-0.814-1.764-1.295c1.113,0.592,2.233,1.172,3.36,1.739c0.362,0.182,0.739,0.254,0.996,0.217
			C23.844,47.492,23.844,47.511,23.844,47.53z M23.852,46.057c-0.173-0.132-0.385-0.27-0.626-0.389
			c-1.776-0.891-3.538-1.808-5.285-2.752c-0.545-0.297-0.512-0.366,0.066-0.146c1.448,0.549,2.879,1.136,4.305,1.73
			c0.571,0.238,1.231,0.552,1.475,0.701c0.029,0.019,0.055,0.011,0.083,0.016C23.862,45.488,23.856,45.77,23.852,46.057z
			 M30.969,35.805c-0.04-0.135-0.088-0.242-0.143-0.275c-0.129-0.079-0.13-0.081,0-0.005c0.079,0.047,0.146-0.062,0.188-0.249
			C31.001,35.457,30.986,35.633,30.969,35.805z M30.661,22.108c-0.164-0.233-0.357-0.44-0.578-0.563
			c-0.262-0.148-0.525-0.296-0.787-0.443c-0.1-0.056-0.21-0.107-0.321-0.158C29.901,21.121,30.405,21.413,30.661,22.108z
			 M22.505,11.127c0.293-0.248,0.519-0.208,0.698,0.008c-0.083-0.023-0.164-0.057-0.248-0.064c-0.261-0.02-0.101,0.231,0.353,0.472
			c0.048,0.025,0.086,0.035,0.13,0.055c0.272,0.788,0.357,2.14,0.386,3.187c-0.156-0.195-0.337-0.377-0.544-0.507
			c-0.6-0.376-1.198-0.755-1.794-1.138c-0.328-0.211-0.708-0.301-1.028-0.283C21.14,12.279,21.822,11.703,22.505,11.127z
			 M19.058,14.037c0.264-0.223,0.528-0.445,0.792-0.668c0.016,0.238,0.182,0.507,0.507,0.722c0.969,0.636,1.944,1.262,2.927,1.88
			c0.224,0.141,0.421,0.262,0.583,0.36c0.088,0.763,0.246,1.544,0.533,2.237c-0.258-0.284-0.539-0.544-0.807-0.696
			c-1.545-0.879-3.091-1.758-4.636-2.637c-0.332-0.188-0.767-0.216-1.167-0.128C18.212,14.75,18.635,14.394,19.058,14.037z
			 M12.032,19.967c0.017,0.236,0.177,0.484,0.496,0.667c1.448,0.83,2.893,1.66,4.343,2.487c4.524,2.827,8.957,5.803,13.283,8.924
			c0.502,0.36,0.907,0.277,0.907-0.188c0-0.467-0.166-0.966-0.374-1.113c-0.207-0.146-0.207-0.181,0-0.074
			c0.207,0.104,0.374-0.193,0.374-0.667s-0.448-1.083-0.999-1.364c-4.472-2.29-8.863-4.743-13.236-7.24
			c-0.996-0.622-1.998-1.236-3.002-1.843c-0.318-0.191-0.698-0.258-1.035-0.227c1.188-1.003,2.377-2.006,3.565-3.009
			c-0.044,0.286,0.079,0.572,0.408,0.759c4.449,2.527,8.95,4.974,13.337,7.578c0.347,0.206,0.637,0.154,0.806-0.065
			c0.054,1.581,0.35,6.602,0.143,10.178c-0.035-0.451-0.441-1.034-0.948-1.34c-4.697-2.832-9.246-5.939-13.954-8.733
			c-1.655-0.981-3.317-1.952-4.987-2.913c-0.315-0.181-0.724-0.216-1.107-0.144C10.712,21.082,11.372,20.524,12.032,19.967z
			 M28.449,34.073c-5.992-3.656-11.996-7.294-17.984-10.956c-0.528-0.323-0.519-0.337,0.018-0.028
			c2.853,1.634,5.688,3.293,8.487,5.002c3.189,1.949,6.315,4.003,9.483,5.977C28.977,34.396,28.977,34.396,28.449,34.073z
			 M8.39,23.042c-0.029,0.278,0.092,0.556,0.401,0.745c7.091,4.347,14.211,8.648,21.311,12.956c0.296,0.18,0.55,0.211,0.727,0.138
			c-0.07,0.403-0.156,0.749-0.259,1.021c-0.098-0.23-0.318-0.463-0.599-0.606c-4.838-2.459-9.655-4.958-14.401-7.574
			c-1.487-0.829-2.967-1.657-4.408-2.509c-1.26-0.744-2.527-1.473-3.799-2.193c-0.164-0.099-0.331-0.196-0.496-0.294
			c-0.104-0.062-0.247-0.074-0.396-0.062C7.11,24.121,7.75,23.582,8.39,23.042z M5.52,25.409c0.004,0.183,0.109,0.359,0.327,0.479
			c0.245,0.135,0.489,0.269,0.732,0.406c4.918,3.237,9.851,6.457,14.767,9.697c0.517,0.342,0.473,0.421-0.091,0.168
			c-0.758-0.341-1.509-0.697-2.251-1.07c-4.591-2.7-9.13-5.48-13.51-8.509c-0.37-0.256-0.814-0.366-1.146-0.312
			C4.746,25.972,5.146,25.685,5.52,25.409z M3.832,26.662c-0.088,0.192-0.066,0.389,0.098,0.507c0.147,0.106,0.293,0.212,0.44,0.317
			c4.796,3.511,9.71,6.872,14.99,9.505c1.509,0.886,3.023,1.765,4.539,2.641c0.537,0.31,1.197,0.095,1.656-0.321
			c0.402-0.366,0.874-0.579,1.382-0.579h1.048c-2.901,0.501-3.771,2.251-4.031,5.001c-0.181-0.277-0.433-0.527-0.716-0.677
			c-0.647-0.343-1.292-0.688-1.936-1.036C15.216,38.395,9.069,34.876,2.88,31.427c-0.03-0.025-0.061-0.051-0.091-0.077
			C0.722,29.605,2.083,28.037,3.832,26.662z"/>
		<path d="M41.775,37.513c0.457-1.688,0.004-4.112,0.004-5.845c0-3.168,0-6.335,0-9.502c0-3.507-7.35-3.425-8.172-0.386
			c-0.006,0.022,0.007,0.035,0.01,0.054c-0.003,0.012-0.014,0.023-0.014,0.036c0,5.085,0,10.172,0,15.258
			C33.604,40.635,40.954,40.552,41.775,37.513z M40.052,21.213c-0.084-0.05-0.167-0.1-0.258-0.151
			c-0.568-0.325-1.58-0.588-2.26-0.588h-0.643C38.071,20.304,39.471,20.545,40.052,21.213z M35.054,21.561
			c0.032-0.114,0.091-0.217,0.164-0.314c0.123,0.185,0.324,0.376,0.582,0.522c1.324,0.747,2.646,1.492,3.969,2.239
			c0.207,0.117,0.398,0.155,0.562,0.131c0,0.695,0,1.391,0,2.085c0,0.812,0,1.624,0,2.435c-0.167-0.209-0.355-0.398-0.569-0.516
			c-1.387-0.766-2.77-1.542-4.15-2.327c-0.209-0.119-0.393-0.163-0.559-0.172C35.054,24.283,35.054,22.922,35.054,21.561z
			 M35.054,27.128c0.157,0.179,0.33,0.348,0.526,0.475c1.424,0.919,2.838,1.855,4.242,2.804c0.189,0.128,0.356,0.166,0.509,0.165
			c0,0.692,0,1.385,0,2.076c-0.157-0.173-0.33-0.337-0.526-0.464c-1.402-0.899-2.805-1.798-4.215-2.681
			c-0.2-0.125-0.376-0.179-0.536-0.202C35.054,28.576,35.054,27.852,35.054,27.128z M35.054,30.795
			c0.122,0.072,0.245,0.145,0.365,0.219c1.473,0.905,2.931,1.831,4.386,2.761c0.197,0.125,0.37,0.185,0.526,0.211
			c0,0.124,0,0.247,0,0.371c-0.16-0.175-0.338-0.34-0.54-0.463c-1.4-0.857-2.798-1.715-4.197-2.572
			c-0.202-0.124-0.38-0.176-0.541-0.196C35.054,31.015,35.054,30.903,35.054,30.795z M35.054,32.505
			c0.161,0.176,0.338,0.342,0.541,0.465c1.399,0.854,2.798,1.709,4.197,2.563c0.202,0.124,0.379,0.177,0.54,0.197
			c0,0.519,0,1.036,0,1.554c-0.115-0.238-0.36-0.487-0.672-0.651c-1.35-0.708-2.692-1.425-4.032-2.148
			c-0.211-0.114-0.407-0.147-0.573-0.12C35.054,33.744,35.054,33.125,35.054,32.505z M35.054,36.728
			c0.154,0.212,0.324,0.405,0.517,0.532c0.077,0.052,0.155,0.102,0.232,0.152c0.568,0.375,1.58,0.681,2.261,0.681h1.414
			c0.289,0,0.557-0.09,0.776-0.244c0.035-0.024,0.056-0.055,0.079-0.084c0,0,0,0.001,0,0.002c0,1.465-3.909,1.456-4.994,0.186
			c0.175,0.083,0.365,0.142,0.571,0.142c0,0,0.041,0,0.091,0c0.052,0-0.05-0.068-0.228-0.149c-0.107-0.048-0.215-0.097-0.319-0.149
			c-0.114-0.066-0.227-0.135-0.339-0.202c-0.038-0.109-0.06-0.225-0.06-0.347C35.054,37.072,35.054,36.9,35.054,36.728z"/>
		<path d="M50.304,37.508c0.457-1.688,0.005-4.107,0.005-5.84c0-3.168,0-6.335,0-9.502c0-3.464-7.153-3.379-7.962-0.381
			c-0.005,0.019,0.008,0.03,0.009,0.046c-0.002,0.013-0.014,0.025-0.014,0.039c0,5.085,0,10.172,0,15.258
			C42.342,40.592,49.494,40.506,50.304,37.508z M48.445,21.05c-0.006-0.004-0.012-0.007-0.018-0.011
			c-0.568-0.325-1.58-0.588-2.26-0.588h-0.44C46.729,20.336,47.854,20.528,48.445,21.05z M43.791,21.553
			c0.024-0.088,0.063-0.171,0.113-0.249c0.125,0.16,0.309,0.317,0.528,0.442c1.324,0.747,2.647,1.492,3.969,2.239
			c0.165,0.093,0.319,0.134,0.458,0.137c0,0.701,0,1.402,0,2.102c0,0.76,0,1.519,0,2.278c-0.142-0.153-0.297-0.289-0.465-0.382
			c-1.387-0.766-2.77-1.542-4.149-2.327c-0.164-0.093-0.315-0.144-0.454-0.17C43.791,24.267,43.791,22.91,43.791,21.553z
			 M43.791,27.23c0.129,0.132,0.271,0.252,0.422,0.35c1.424,0.919,2.838,1.855,4.243,2.805c0.144,0.097,0.279,0.153,0.403,0.175
			c0,0.648,0,1.297,0,1.945c-0.129-0.128-0.271-0.246-0.422-0.344c-1.401-0.898-2.805-1.798-4.215-2.681
			c-0.155-0.097-0.299-0.157-0.432-0.192C43.791,28.602,43.791,27.917,43.791,27.23z M43.791,30.834
			c0.087,0.052,0.175,0.104,0.261,0.156c1.473,0.905,2.931,1.831,4.386,2.762c0.151,0.097,0.293,0.159,0.422,0.197
			c0,0.088,0,0.178,0,0.266c-0.133-0.129-0.278-0.249-0.436-0.346c-1.4-0.856-2.798-1.715-4.197-2.571
			c-0.157-0.097-0.303-0.155-0.436-0.188C43.791,31.019,43.791,30.927,43.791,30.834z M43.791,32.6
			c0.134,0.13,0.279,0.25,0.436,0.347c1.399,0.854,2.798,1.709,4.197,2.564c0.157,0.096,0.302,0.154,0.436,0.188
			c0,0.464,0,0.929,0,1.393c-0.133-0.182-0.331-0.356-0.567-0.48c-1.35-0.708-2.692-1.425-4.032-2.147
			c-0.169-0.092-0.327-0.129-0.469-0.128C43.791,33.756,43.791,33.178,43.791,32.6z M43.791,36.857
			c0.126,0.15,0.265,0.282,0.412,0.379c0.076,0.052,0.154,0.103,0.231,0.153c0.568,0.375,1.58,0.68,2.261,0.68h1.414
			c0.273,0,0.523-0.086,0.735-0.224c-0.137,1.391-3.679,1.348-4.746,0.142c0.139,0.049,0.286,0.082,0.442,0.082c0,0,0.041,0,0.091,0
			c0.052,0-0.05-0.067-0.228-0.148c-0.107-0.049-0.215-0.098-0.319-0.15c-0.069-0.04-0.138-0.082-0.206-0.123
			c-0.053-0.126-0.089-0.258-0.089-0.402C43.791,37.115,43.791,36.986,43.791,36.857z"/>
		<path d="M59.065,22.166c0-3.514-7.367-3.434-8.19-0.387c-0.006,0.023,0.007,0.037,0.009,0.056
			c-0.002,0.012-0.012,0.022-0.012,0.035c0,5.085,0,10.172,0,15.258c0,3.514,7.365,3.434,8.19,0.387
			c0.457-1.688,0.004-4.113,0.004-5.846C59.065,28.5,59.065,25.333,59.065,22.166z M57.25,21.127
			c-0.064-0.038-0.122-0.073-0.189-0.111c-0.561-0.321-1.554-0.581-2.234-0.586C55.777,20.415,56.743,20.643,57.25,21.127z
			 M57.615,37.766c0,1.486-4.082,1.453-5.076,0.11c0.189,0.104,0.403,0.17,0.636,0.17c0,0,0.041,0,0.091,0
			c0.052,0-0.05-0.068-0.227-0.149c-0.108-0.048-0.216-0.097-0.32-0.15c-0.117-0.067-0.232-0.137-0.348-0.206
			c-0.029-0.095-0.052-0.19-0.052-0.295c0-0.188,0-0.375,0-0.562c0.154,0.212,0.324,0.405,0.518,0.532
			c0.077,0.052,0.155,0.102,0.231,0.152c0.568,0.375,1.58,0.681,2.262,0.681h1.414c0.289,0,0.556-0.09,0.775-0.244
			c0.043-0.03,0.073-0.066,0.098-0.104C57.615,37.721,57.615,37.742,57.615,37.766z M57.615,37.286
			c-0.103-0.253-0.356-0.524-0.689-0.699c-1.349-0.708-2.692-1.426-4.032-2.148c-0.211-0.114-0.407-0.147-0.573-0.12
			c0-0.62,0-1.24,0-1.859c0.161,0.176,0.339,0.342,0.541,0.465c1.399,0.854,2.799,1.709,4.197,2.563
			c0.21,0.128,0.395,0.182,0.559,0.198C57.615,36.22,57.615,36.754,57.615,37.286z M57.615,34.332
			c-0.163-0.184-0.348-0.356-0.558-0.484c-1.399-0.857-2.798-1.715-4.197-2.572c-0.201-0.124-0.38-0.176-0.541-0.197
			c0-0.109,0-0.221,0-0.331c0.122,0.073,0.245,0.146,0.365,0.22c1.474,0.904,2.931,1.831,4.386,2.761
			c0.205,0.131,0.385,0.189,0.545,0.213C57.615,34.072,57.615,34.201,57.615,34.332z M57.615,32.624
			c-0.16-0.182-0.34-0.354-0.545-0.485c-1.401-0.899-2.805-1.798-4.215-2.681c-0.2-0.125-0.376-0.179-0.536-0.202
			c0-0.724,0-1.449,0-2.173c0.157,0.179,0.33,0.348,0.526,0.475c1.424,0.919,2.838,1.855,4.243,2.804
			c0.198,0.133,0.371,0.169,0.526,0.163C57.615,31.224,57.615,31.924,57.615,32.624z M57.615,26.225c0,0.805,0,1.609,0,2.413
			c-0.171-0.22-0.365-0.418-0.588-0.54c-1.387-0.766-2.77-1.542-4.149-2.327c-0.209-0.119-0.394-0.163-0.56-0.172
			c0-1.345,0-2.69,0-4.035c0.034-0.122,0.102-0.232,0.184-0.334c0.124,0.177,0.318,0.355,0.562,0.494
			c1.324,0.747,2.647,1.492,3.97,2.239c0.215,0.122,0.413,0.16,0.58,0.13C57.615,24.803,57.615,25.514,57.615,26.225z"/>
	</g>
</g>
<g>
</g>
<g>
</g>
<g>
</g>
<g>
</g>
<g>
</g>
<g>
</g>
<g>
</g>
<g>
</g>
<g>
</g>
<g>
</g>
<g>
</g>
<g>
</g>
<g>
</g>
<g>
</g>
<g>
</g>
</svg>
