<?xml version="1.0" encoding="UTF-8" standalone="no"?>
<svg
   xmlns:dc="http://purl.org/dc/elements/1.1/"
   xmlns:cc="http://creativecommons.org/ns#"
   xmlns:rdf="http://www.w3.org/1999/02/22-rdf-syntax-ns#"
   xmlns:svg="http://www.w3.org/2000/svg"
   xmlns="http://www.w3.org/2000/svg"
   xml:space="preserve"
   enable-background="new 0 0 1051 1258"
   viewBox="0 0 640 340"
   height="340"
   width="640"
   y="0px"
   x="0px"
   id="svg2211"
   version="1.1"><metadata
   id="metadata955"><rdf:RDF><cc:Work
       rdf:about=""><dc:format>image/svg+xml</dc:format><dc:type
         rdf:resource="http://purl.org/dc/dcmitype/StillImage" /><dc:title></dc:title></cc:Work></rdf:RDF></metadata><defs
   id="defs953" />

	xmlns="http://www.w3.org/2000/svg" xmlns:xlink="http://www.w3.org/1999/xlink">
	<image href="back1.JPG" x="0" y="0" height="360" width="640"/>

<g
   id="g948"
   transform="matrix(0.2,0,0,0.2,409.21186,67.483051)">

   <animateTransform dur="6s" attributeName="transform" repeatCount="indefinite" type="scale" from="0.2" to="0.23"/>

   <animateMotion dur="6s" path="M500 80 L180 40" repeatCount="indefinite"/>
	
	<polygon
   style="fill:#ffffff"
   id="polygon910"
   points="620.447,534.968 627.946,501.97 642.446,471.971 642.946,398.475 650.445,344.478 671.444,327.979 690.943,317.479 702.943,291.98 702.943,257.482 688.443,213.984 695.443,165.987 713.442,135.988 740.441,120.989 773.439,108.99 797.438,117.989 827.437,155.487 842.437,185.486 842.437,240.983 846.936,278.481 851.436,308.479 875.435,321.979 893.434,350.478 897.934,386.476 899.434,429.974 905.433,477.971 914.433,537.968 914.433,569.467 897.934,624.964 891.934,657.962 899.434,696.96 896.434,711.959 902.433,740.458 872.435,771.956 894.934,891.95 947.431,1059.942 968.43,1140.938 1002.928,1178.437 998.429,1212.935 965.43,1202.435 935.432,1173.937 932.432,1140.938 870.935,899.45 816.938,786.956 864.935,555.967 866.435,498.97 851.436,456.972 686.943,465.472 678.313,499.257 674.775,526.855 737.441,893.45 752.44,1079.441 756.94,1100.44 768.939,1128.938 768.939,1143.938 738.941,1167.937 719.442,1191.936 689.443,1187.436 684.944,1167.937 715.442,1129.439 717.441,1113.939 715.441,1101.939 719.442,896.45 687.943,788.456 642.946,761.457 623.447,741.958 606.948,710.46 621.947,665.462 " />
	<path
   style="fill:#8ec8f0;stroke:#000000;stroke-width:2;stroke-linecap:round;stroke-linejoin:bevel"
   id="path912"
   d="m 730.667,356.833 c 14.667,10 40,10.667 68.667,0 L 754,452.167 Z" />
	<path
   style="fill:#8ec8f0;stroke:#000000;stroke-width:2;stroke-linecap:round;stroke-linejoin:bevel"
   id="path914"
   d="m 622.212,573.656 -0.502,-13.042 17.183,-9.885 17.107,14.104 -3.482,11.936 c -9.336,-4.025 -20.212,-3.592 -30.306,-3.113 z" />
	<path
   style="fill:#8ec8f0;stroke:#000000;stroke-width:2;stroke-linecap:round;stroke-linejoin:bevel"
   id="path916"
   d="m 863.791,590.1 -0.502,-13.042 24.763,-10.766 24.591,9.181 -4.591,20 C 897.56,588.587 873.885,589.62 863.791,590.1 Z" />
	<path
   id="path918"
   d="m 667.665,1205.097 c -0.498,-2.596 -1.083,-6.113 -1.164,-7.763 -0.081,-1.65 2.378,-15.701 7.249,-21.334 4.871,-5.633 14.069,-14.648 14.069,-14.648 l 4.72,-4.598 4.721,-4.598 3.69,-5.77 c 2.029,-3.174 3.69,-5.971 3.69,-6.217 0,-0.246 2.204,-3.95 4.897,-8.23 l 4.898,-7.783 0.648,-3.101 0.648,-3.102 -1.083,-8.713 c -0.595,-4.792 -2.211,-13.522 -3.591,-19.399 -3.188,-13.575 -16.132,-66.511 -17.436,-71.302 -0.541,-1.989 -0.983,-4.941 -0.983,-6.562 0,-1.621 -0.949,-6.518 -2.108,-10.884 -4.579,-17.242 -7.286,-32.968 -9.974,-57.938 l -0.968,-9 0.649,-8.5 c 0.357,-4.675 1.419,-12.293 2.358,-16.929 l 1.708,-8.429 -0.814,-4.071 c -0.448,-2.239 -1.968,-10.485 -3.377,-18.325 l -2.563,-14.254 -3.896,-9.83 c -2.144,-5.407 -9.373,-26.218 -16.067,-46.246 l -12.171,-36.416 -3.586,-4.409 c -1.973,-2.425 -7.396,-8.489 -12.053,-13.478 l -8.467,-9.068 -4.38,-9.022 c -2.409,-4.963 -5.89,-11.872 -7.735,-15.354 l -3.354,-6.331 -0.474,-3.169 -0.473,-3.169 0.928,-2.5 c 0.51,-1.375 2.003,-4.075 3.318,-6 l 2.391,-3.5 3.073,-9.207 3.072,-9.207 1.52,-10.157 1.519,-10.157 -1.064,-30.636 c -0.585,-16.85 -1.044,-40.986 -1.02,-53.636 l 0.045,-23 0.894,-13.5 0.894,-13.5 1.662,-8 1.663,-8 2.348,-5.5 c 1.292,-3.025 4.214,-10.384 6.494,-16.353 l 4.146,-10.853 1.526,-7.147 1.526,-7.147 0.74,-44 0.739,-44 2.179,-9.303 2.179,-9.303 3.476,-6.903 3.477,-6.903 4.58,-4.389 4.58,-4.389 7.18,-3.966 c 3.948,-2.182 9.204,-4.726 11.68,-5.653 2.475,-0.927 5.979,-2.591 7.789,-3.698 l 3.29,-2.012 1.83,-4.27 c 1.007,-2.348 2.339,-6.642 2.96,-9.541 0.622,-2.899 1.877,-6.711 2.789,-8.471 l 1.659,-3.2 -0.064,-14.5 -0.064,-14.5 -1.991,-8 c -1.095,-4.4 -3.816,-13.248 -6.048,-19.661 l -4.058,-11.661 -0.631,-4.839 -0.631,-4.839 1.614,-9.244 c 0.888,-5.083 2.279,-15.659 3.093,-23.5 l 1.478,-14.256 3.093,-6 c 3.339,-6.478 9.304,-14.679 14.893,-20.478 6.003,-6.229 17.055,-12.957 43.177,-26.283 l 3.677,-1.876 8.132,-1.42 8.133,-1.419 7.122,1.01 7.122,1.01 4.568,2.728 4.569,2.728 6.657,7 6.657,7 6.591,10 c 3.624,5.5 7.887,11.8 9.472,14 1.585,2.2 4.805,7.6 7.155,12 2.35,4.4 4.642,8.675 5.094,9.5 0.452,0.825 1.952,4.889 3.333,9.031 l 2.51,7.531 0.989,9.539 0.989,9.539 0.005,30.075 0.005,30.075 2.598,11.855 c 1.43,6.521 3.202,14.78 3.939,18.355 0.738,3.575 1.645,7.27 2.015,8.21 l 0.674,1.709 7.533,4.134 7.533,4.135 4.402,4.058 4.402,4.058 7.079,11.341 7.08,11.341 2.324,7.535 2.325,7.535 1.063,9.222 c 0.585,5.072 1.476,12.995 1.979,17.606 l 0.917,8.384 0.12,16.116 0.119,16.116 1.019,12 c 1.215,14.3 3.23,28.279 5.888,40.821 1.069,5.048 2.396,12.328 2.95,16.179 0.553,3.85 1.533,10.149 2.179,14 l 1.175,7 0.005,19 0.006,19 -1.108,10.5 -1.109,10.5 -2.128,8.5 c -1.17,4.675 -3.914,14.529 -6.097,21.899 l -3.968,13.399 -1.937,14.101 c -1.065,7.755 -2.588,16.469 -3.384,19.364 l -1.446,5.264 1.918,7.322 c 1.055,4.027 2.756,12.684 3.78,19.236 l 1.861,11.914 -0.72,8.5 -0.721,8.5 1.019,4.972 1.018,4.972 -0.62,8.06 -0.619,8.06 1.841,11.469 1.841,11.469 0.224,32 c 0.123,17.6 0.395,36.725 0.604,42.5 l 0.382,10.5 1.509,10.5 c 0.83,5.774 2.223,12.975 3.095,16 2.591,8.987 3.493,13.094 4.612,21 0.584,4.125 1.89,12.599 2.901,18.83 l 1.84,11.331 4.067,6.244 4.068,6.244 5.022,11.219 5.022,11.219 1.849,7.707 c 1.018,4.238 2.781,10.855 3.921,14.706 2.321,7.843 4.717,21.463 5.627,32 0.803,9.282 2.297,22.415 4.151,36.5 6.889,52.291 7.936,57.655 14.277,73.127 l 3.842,9.373 6.592,9.807 c 9.347,13.904 10.763,15.591 24.436,29.097 l 9.245,12.097 3.708,6 2.709,6 5.017,14.669 c -0.394,12.823 -1.816,13.069 -2.915,18.58 l -3.282,4.415 -3.363,2.889 -3.363,2.889 -3.5,1.023 c -1.926,0.563 -3.056,0.47 -4.155,0.468 l -3.345,-0.452 -5.456,-1.54 -5.455,-2.539 -10.535,-4.837 -10.565,-8.855 -3.116,-4.354 c -1.715,-2.396 -5.905,-9.624 -9.313,-16.065 l -6.195,-11.71 -3.183,-1.962 c -1.75,-1.079 -4.532,-2.285 -6.182,-2.68 -4.528,-1.084 -8.193,-3.166 -12.625,-7.169 l -4.005,-3.618 -1.436,-2.775 -1.435,-2.776 -0.989,-5.299 1.011,-5.3 1.489,-4.909 1.489,-4.909 v -5.707 -5.708 l -1.917,-4.884 c -1.055,-2.686 -3.135,-8.708 -4.623,-13.383 -6.047,-18.996 -20.999,-48.933 -45.45,-91 -13.926,-23.959 -16.959,-30.59 -21.244,-46.444 l -2.178,-8.056 0.236,-18.174 0.235,-18.175 -4.714,-7.825 c -2.594,-4.305 -6.362,-10.526 -8.375,-13.826 -8.189,-13.423 -17.76,-37.819 -22.949,-58.5 -8.527,-33.979 -18.301,-63.748 -27.251,-83 -5.026,-10.813 -12.203,-26.975 -14.432,-32.5 -1.331,-3.3 -3.081,-7.486 -3.889,-9.304 l -1.469,-3.303 -0.851,0.525 -0.85,0.524 -0.602,13.778 c -0.331,7.578 -1.084,18.729 -1.673,24.778 -0.589,6.049 -1.448,17.75 -1.911,26 l -0.84,15 2.366,21 c 1.301,11.55 2.368,23.253 2.371,26.007 l 0.007,5.007 -2.707,11.493 -2.706,11.493 0.122,3.5 c 0.206,5.876 2.267,16.104 4.836,24 l 2.44,7.5 1.601,10.945 1.601,10.945 -0.484,13.055 -0.485,13.055 -1.667,10.5 -1.668,10.5 -0.365,25 -0.366,25 -1.769,24.448 -1.77,24.448 3.056,11.552 c 1.68,6.354 4.951,17.401 7.27,24.552 l 4.215,13 -0.426,4.707 -0.425,4.708 -2.563,3.359 -2.562,3.358 -13.637,6.683 -13.636,6.684 -2.556,2.75 c -3.082,3.317 -5.946,8.764 -8.478,16.123 -2.355,6.845 -5.85,12.826 -9.546,16.338 l -2.852,2.709 -3.781,2.926 -4.333,2.666 -4.834,1.834 -6,1.666 -6.5,1.667 c 0,0 -5.65,0.577 -7.825,0.455 -2.175,-0.122 -7.175,-1.622 -7.175,-1.622 l -5.526,-3.34 L 670,1211 Z m 236.994,-260.918 -1.191,-1.436 1.964,-5.265 1.965,-5.266 1.603,-1.012 1.604,-1.011 1.603,1.603 1.603,1.603 -2.224,5.17 -2.225,5.171 -1.755,0.938 -1.754,0.939 z m -24.112,-5.739 -4.092,-4.217 -2.494,-4.921 -2.493,-4.921 -0.531,-5.144 -0.53,-5.143 1.617,-1.343 1.617,-1.342 1.5,1.245 1.5,1.245 0.01,3.627 0.01,3.628 2.37,5 2.371,5 4.119,3.953 4.12,3.953 v 1.797 1.797 h -2.502 -2.501 z m -127.974,-609.851 -2.066,-2.067 1.261,-1.52 1.261,-1.519 2.631,0.526 2.631,0.526 4.425,-2.936 4.426,-2.936 3.215,-0.004 3.215,-0.004 0.988,1.847 0.988,1.847 -1.153,1.153 c -0.635,0.634 -1.851,1.153 -2.703,1.153 -0.852,0 -4.025,1.333 -7.05,2.96 l -5.5,2.96 -2.25,0.04 -2.25,0.04 z m 4.347,-11.953 -2.22,-0.893 -0.624,-2.486 -0.624,-2.487 0.653,-1.057 0.652,-1.057 h 3.081 3.081 l 1.377,-1.75 c 1.777,-2.26 3.805,-6.83 7.432,-16.75 1.608,-4.4 3.814,-9.463 4.903,-11.25 l 1.979,-3.25 h 2.015 2.015 v 1.875 c 0,1.032 -1.061,4.294 -2.355,7.25 -1.296,2.956 -3.347,8.38 -4.559,12.054 -1.211,3.674 -3.564,9.195 -5.229,12.268 l -3.026,5.589 -2.866,1.481 c -1.575,0.815 -3,1.453 -3.165,1.418 -0.165,-0.033 -1.299,-0.464 -2.52,-0.955 z m -49.949,829.396 c -2.015,3.368 -5.656,7.468 -7.971,10.218 l -5.75,5 -6.308,5.618 c 0,0 -0.314,8.15 9.559,11.966 14.666,5.667 26.166,3.333 26.166,3.333 0,0 4.5,-5 5.667,-9.5 1.123,-4.329 8.333,-13.499 12.833,-17.166 4.5,-3.667 10.667,-8.5 10.667,-8.5 l -2.07,-2.845 1.45,-8 1.45,-8 0.051,-6.17 0.051,-6.17 -1.563,-5.262 -1.563,-5.262 v -3.866 -3.866 l 2.595,-2.405 2.596,-2.405 1.395,-16.297 1.395,-16.297 0.845,-27 c 0.465,-14.851 0.834,-29.7 0.821,-33 l -0.024,-6 1.725,-11.5 1.725,-11.5 0.593,-11.5 0.592,-11.5 -1.671,-11.311 -1.671,-11.312 -2.563,-7.188 c -1.409,-3.954 -2.983,-7.636 -3.498,-8.182 l -0.937,-0.991 -0.942,1.491 -0.943,1.492 -0.016,7.668 c -0.008,4.218 -0.288,8.38 -0.622,9.25 l -0.607,1.582 h -1.925 -1.925 l -0.832,-2.248 -0.831,-2.248 0.194,-8.002 0.195,-8.002 2.619,-6.5 c 1.439,-3.575 4.034,-11.45 5.764,-17.5 l 3.146,-11 0.54,-9.795 0.541,-9.795 -2.322,-22.471 -2.322,-22.471 1.71,-20.234 c 0.94,-11.129 2.198,-29.2 2.794,-40.157 l 1.084,-19.924 -0.715,-10.483 -0.714,-10.483 -8.144,-8.594 c -4.479,-4.727 -9.718,-10.318 -11.643,-12.426 -3.713,-4.064 -16.309,-21.925 -20.467,-29.019 l -2.479,-4.231 -11.508,-12.239 c -6.33,-6.731 -12.012,-13.178 -12.625,-14.325 l -1.116,-2.086 1.492,-1.492 1.491,-1.492 1.518,0.858 c 0.834,0.473 6.775,6.465 13.202,13.316 l 11.685,12.457 8.504,12.543 c 13.117,19.349 13.643,20.033 21.776,28.379 l 7.637,7.836 1.205,-0.463 1.204,-0.462 1.254,-4.688 1.255,-4.689 4.85,-7.185 4.851,-7.185 4.683,-4.313 4.683,-4.313 2.125,0.313 2.125,0.313 0.378,1.147 0.377,1.148 -6.407,7.217 c -3.524,3.97 -7.862,9.617 -9.641,12.551 l -3.232,5.334 -0.539,7.863 -0.539,7.863 2.069,4.677 c 1.138,2.573 3.486,9.68 5.218,15.793 l 3.147,11.114 4.913,10.888 c 2.702,5.988 4.913,11.148 4.913,11.467 0,0.319 2.218,5.159 4.928,10.758 5.687,11.745 14.313,33.988 17.132,44.176 1.066,3.853 2.868,10.153 4.005,14.004 2.237,7.578 3.127,10.852 7.828,28.781 7.047,26.882 17.092,50.681 28.247,66.928 1.022,1.49 1.862,3.065 1.864,3.5 0.003,0.436 1.664,2.591 3.691,4.791 l 3.688,4 3.793,8.5 3.793,8.5 0.016,2.281 0.016,2.281 -1.656,0.636 -1.655,0.635 -1.885,-2.326 -1.884,-2.327 -1.074,1.073 -1.073,1.074 0.468,10.836 0.469,10.837 2.648,9 2.647,9 5.396,10.5 c 2.968,5.774 7.457,13.875 9.977,18 2.52,4.125 6.896,12 9.725,17.5 2.829,5.5 5.938,11.125 6.906,12.5 2.242,3.18 18.669,35.945 23.313,46.5 1.936,4.399 5.334,13.399 7.552,20 6.993,20.808 7.765,22.792 12.498,32.151 0,0 24.184,33.042 35.485,39.746 11.301,6.704 25.105,-7.254 25.105,-7.254 0,0 2.285,-5.771 1.136,-7.304 -2.125,-2.833 -12.66,-17.286 -16.124,-21.658 -2.041,-2.575 -5.323,-7.215 -7.296,-10.312 l -4.808,-6.87 -3.853,-8.25 c -2.119,-4.538 -4.795,-11.064 -5.947,-14.504 l -2.094,-6.253 -2.015,-11.747 c -2.753,-16.055 -7.443,-51.371 -9.396,-70.746 -0.887,-8.8 -2.325,-20.5 -3.197,-26 l -1.585,-10 -2.327,-7.5 c -1.279,-4.125 -2.649,-9.3 -3.044,-11.5 -1.06,-5.921 -4.658,-15.86 -9.346,-25.819 l -4.151,-8.819 -1.208,0.401 -1.207,0.401 -0.868,4.722 -0.868,4.723 -2.132,-0.305 -2.132,-0.304 -0.67,-18 -0.669,-18 -1.081,-3.493 -1.08,-3.494 v -5.074 -5.074 l -2.015,-7.432 c -1.108,-4.088 -2.699,-9.908 -3.536,-12.933 -0.836,-3.025 -2.208,-10 -3.048,-15.5 l -1.527,-10 -0.47,-42.5 -0.47,-42.5 -1.037,-7.849 c -0.569,-4.316 -1.278,-8.479 -1.574,-9.25 l -0.538,-1.401 h -1.219 c -1.801,0 -4.926,3.717 -8.984,10.686 l -3.604,6.187 -1.864,0.592 c -1.025,0.325 -3.474,2.154 -5.44,4.063 l -3.575,3.473 h -1.517 -1.516 l -3.5,-3.5 c -1.925,-1.925 -3.933,-3.5 -4.462,-3.5 -0.529,0 -1.669,-0.707 -2.533,-1.571 l -1.571,-1.571 0.003,-4.679 0.004,-4.679 2.962,-7.5 2.962,-7.5 0.029,-6.5 0.028,-6.5 -1.041,-3.75 -1.042,-3.75 h -0.917 c -1.225,0 -2.839,3.139 -4.54,8.828 l -1.396,4.672 -2.556,2.738 -2.556,2.738 -2.511,0.63 -2.511,0.631 -1.96,-1.774 -1.959,-1.773 0.035,-13.095 0.035,-13.095 1.43,-6.5 1.43,-6.5 0.035,-6.803 0.035,-6.803 1.623,-7.197 1.623,-7.197 2.014,-3.978 c 1.106,-2.188 3.028,-5.563 4.271,-7.5 l 2.258,-3.522 1.074,-5 1.074,-5 0.892,-18.5 c 0.49,-10.175 0.895,-20.75 0.898,-23.5 0.003,-2.75 0.304,-11.631 0.668,-19.734 l 0.661,-14.735 -3.442,-10.395 c -3.733,-11.274 -8.104,-20.853 -14.942,-32.739 -2.405,-4.183 -4.891,-9.087 -5.522,-10.899 l -1.148,-3.296 0.048,-5.601 0.048,-5.601 3.342,-11 c 1.838,-6.05 4.741,-15.461 6.452,-20.913 l 3.11,-9.913 v -4.837 -4.837 l -0.75,0.009 c -0.413,0.005 -3.28,2.175 -6.373,4.822 l -5.622,4.813 -5.378,2.371 -5.377,2.371 -7.5,-0.067 -7.5,-0.066 -7.5,-2.448 -7.5,-2.448 -7,-5.119 -7,-5.118 -1.754,-2.969 -1.753,-2.969 0.61,-1.591 0.61,-1.59 h 1.824 1.825 l 2.086,2.929 2.085,2.929 5.965,3.983 5.965,3.982 7.771,2.589 c 4.274,1.423 8.505,2.588 9.402,2.588 2.021,0 11.078,-2.675 16.134,-4.765 l 3.771,-1.559 3.979,-4.316 3.979,-4.315 0.009,-1.272 c 0.005,-0.7 1.116,-3.522 2.469,-6.272 l 2.46,-5 0.031,-6.032 0.031,-6.032 -1.32,-5.089 -1.32,-5.089 -3.521,-4.879 c -1.937,-2.684 -3.828,-5.73 -4.203,-6.77 l -0.681,-1.891 1.598,-2.438 1.597,-2.438 -0.76,-4.171 c -0.886,-4.855 -0.639,-6.89 0.961,-7.894 l 1.15,-0.722 3.217,0.393 c 1.769,0.216 3.7,0.691 4.291,1.057 l 1.075,0.665 -0.155,7.165 -0.155,7.166 1.072,8.777 c 0.589,4.828 1.358,9.242 1.709,9.81 l 0.638,1.032 0.828,19.19 0.827,19.19 1.479,4.5 c 0.813,2.475 1.971,7.447 2.571,11.049 0.601,3.603 1.755,8.783 2.565,11.514 l 1.475,4.963 2.585,3.487 c 3.023,4.077 5.898,10.179 8.611,18.274 l 1.939,5.787 -0.596,0.963 -0.595,0.963 h -1.882 -1.883 l -0.617,-1 c -0.34,-0.55 -1.046,-1 -1.568,-1 h -0.949 l 0.662,24.285 0.662,24.285 -1.178,6.465 -1.178,6.465 -0.415,10 c -0.229,5.5 -0.86,12.25 -1.405,15 l -0.991,5 -0.56,22 -0.559,22 -1.556,6.492 -1.556,6.491 -3.411,5.009 -3.41,5.008 -2.045,7.479 -2.044,7.48 v 6.16 6.161 l -2.587,9.859 -2.587,9.859 0.394,8.724 0.394,8.723 0.741,0.741 0.741,0.741 1.702,-1.062 1.702,-1.063 1.323,-3.902 c 2.822,-8.322 6.228,-22.372 7.093,-29.267 l 0.906,-7.218 1.202,-1.448 1.202,-1.448 0.953,0.59 0.954,0.59 -0.637,8.649 -0.637,8.649 2.632,7.5 2.632,7.5 0.569,9 0.57,9 -2.741,6.85 -2.74,6.85 -0.522,3.9 -0.523,3.9 0.882,-0.074 0.882,-0.073 4.24,-8.677 c 2.332,-4.771 4.728,-10.026 5.322,-11.676 l 1.081,-3 0.881,-10.824 0.881,-10.824 1.798,-3.676 1.797,-3.676 h 1.5 1.5 l -0.087,4.25 c -0.047,2.337 0.045,4.25 0.205,4.25 0.159,0 1.499,-1.209 2.977,-2.686 l 2.686,-2.687 1.77,2.187 c 3.495,4.314 5.089,2.527 6.075,-6.814 l 0.688,-6.5 -0.863,-5 c -0.476,-2.75 -1.581,-9.242 -2.459,-14.427 l -1.595,-9.427 -2.947,-6.928 c -1.622,-3.811 -2.948,-7.805 -2.948,-8.876 v -1.947 l 2.908,-1.014 2.907,-1.014 0.585,-2.33 c 0.322,-1.281 1.088,-6.989 1.701,-12.685 l 1.116,-10.354 5.27,-18.5 c 2.898,-10.175 5.979,-21.65 6.846,-25.5 l 1.576,-7 1.189,-17.271 1.19,-17.271 -0.576,-12.229 -0.576,-12.229 -2.018,-13.033 c -1.11,-7.168 -2.913,-17.293 -4.006,-22.5 -1.094,-5.207 -2.689,-14.867 -3.545,-21.467 l -1.557,-12 -1.502,-33.147 -1.502,-33.148 -1.067,-7.853 c -1.075,-7.904 -3.896,-18.464 -6.04,-22.614 -3.319,-6.423 -12.704,-20.7 -15.726,-23.923 l -3.454,-3.685 -5.959,-3.315 c -3.277,-1.823 -6.928,-3.9 -8.11,-4.615 l -2.151,-1.299 -5.51,0.509 -5.51,0.509 -4.49,1.646 c -2.47,0.905 -7.641,2.521 -11.49,3.591 l -7,1.945 -15.226,0.592 -15.226,0.592 -1.504,-1.248 -1.503,-1.248 0.947,-1.771 0.947,-1.771 14.781,-0.48 14.782,-0.48 10.5,-2.709 10.5,-2.71 1.5,-1.495 1.5,-1.495 -3.5,-2.984 c -5.313,-4.53 -5.532,-4.685 -11.833,-8.377 l -5.879,-3.446 -4.747,-1.063 c -6.594,-1.478 -9.427,-3.123 -14.956,-8.688 l -4.791,-4.822 -1.809,-4 -1.81,-4 -1.641,-10.5 -1.64,-10.5 -1.251,-1.268 -1.251,-1.267 -5.784,6.628 -4.75,5.25 -9.75,6.25 -9.766,6.91 -6.367,1.041 c -3.502,0.572 -9.867,0.549 -12.367,-0.576 -0.125,3.75 1.44,8.256 2.625,10.625 C 742.5,287 749,299.5 749,299.5 c 0,0 -1.854,0.377 -3.603,-1.594 0,0 -5.624,-8.311 -7.323,-12.046 -1.699,-3.735 -3.699,-12.985 -3.699,-12.985 l 0.024,4.781 c -0.408,4.675 -0.625,6.972 -1.149,9.594 -0.625,3.125 -0.029,6.086 -1.875,9 -1.511,2.384 -5.204,4.584 -5.204,4.584 l -4.016,3.692 c -2.208,2.031 -7.275,5.928 -11.26,8.661 l -7.245,4.969 -0.005,1.23 -0.005,1.23 21.236,0.27 21.237,0.27 0.336,1.747 0.336,1.747 -2.372,0.901 -2.371,0.902 -20.787,0.351 -20.786,0.352 -2.367,-2.75 -2.366,-2.75 h -1.989 -1.989 l -0.533,0.863 c -0.293,0.475 -4.257,2.342 -8.809,4.149 l -8.275,3.286 -5.003,3.18 c -2.751,1.749 -6.485,4.664 -8.299,6.477 l -3.297,3.297 -2.936,5.814 -2.935,5.814 -2.157,9.31 -2.157,9.31 -0.271,39.5 -0.272,39.5 -1.645,10.864 -1.645,10.864 -2.519,6.636 c -1.385,3.649 -3.588,9.656 -4.896,13.348 -1.309,3.692 -3.023,7.967 -3.811,9.5 -0.788,1.533 -2.188,5.713 -3.111,9.288 l -1.679,6.5 -1.157,13 -1.156,13 0.017,28.5 c 0.009,15.675 0.221,43.35 0.472,61.5 l 0.457,33 -1.746,7.5 c -2.105,9.043 -8.331,25.473 -11.059,29.183 l -1.973,2.683 0.654,3.27 0.653,3.271 4.815,8.047 c 2.648,4.427 5.67,10.295 6.714,13.042 l 1.898,4.994 6.973,7.256 c 3.835,3.99 7.309,7.256 7.72,7.256 h 0.747 l -1.555,-3.721 -1.555,-3.721 -4.538,-5.029 -4.539,-5.029 -1.388,-3.294 c -0.763,-1.812 -2.266,-7.565 -3.341,-12.788 -1.074,-5.222 -2.41,-10.348 -2.968,-11.391 -0.559,-1.043 -1.015,-2.84 -1.015,-3.993 v -2.097 l 1.537,-0.59 1.537,-0.591 1.845,1.67 1.844,1.669 1.513,5.702 c 0.832,3.136 2.071,8.512 2.754,11.946 l 1.241,6.244 1.293,1.756 1.293,1.756 0.74,-1.91 0.739,-1.91 -1.176,-10.59 -2.176,-10.59 -0.908,-11 c 0.122,-14.598 -0.717,-16.453 7.786,-54.352 1.305,-5.816 3.392,-19.504 5.937,-42.683 l 2.757,-21.363 2.073,-8.5 2.072,-8.5 4.415,-9.691 c 2.777,-5.226 5.883,-12.387 7.979,-15.411 l 3.809,-5.5 1.538,-7.5 c 0.847,-4.125 1.217,-9.976 2.046,-13 1.737,-6.339 2.659,-10.457 5.601,-25 l 2.123,-10.5 0.521,-7.522 0.521,-7.521 -2.448,-2.979 c -3.885,-4.724 -9.454,-14.55 -11.202,-19.763 l -1.604,-4.785 0.025,-6.215 0.025,-6.215 1.821,-8.051 1.822,-8.051 2.755,-5.449 2.755,-5.449 -0.476,-6.102 -0.475,-6.102 0.923,-1.648 0.922,-1.648 h 1.871 1.871 l 0.541,2.75 c 0.298,1.512 0.829,4.844 1.179,7.404 l 0.638,4.654 -3.511,7.846 -3.51,7.846 -1.693,8.437 -1.692,8.438 0.669,5.046 0.669,5.045 2.985,5.602 c 1.643,3.08 4.337,7.239 5.987,9.242 l 3.003,3.643 4.197,1.145 4.197,1.145 7.562,0.063 7.562,0.062 6.438,-3.022 6.438,-3.023 6.713,-5.159 c 7.313,-5.619 8.258,-5.98 9.202,-3.519 l 0.63,1.641 -1.57,2.396 -1.569,2.396 -5.983,4.404 c -3.29,2.423 -8.388,5.581 -11.327,7.02 l -5.345,2.614 -8.375,0.694 -8.375,0.694 0.318,15 0.318,15 -2.008,7.67 c -3.603,13.77 -8.742,22.8 -20.755,36.469 l -5.244,9.119 -3.472,6.493 -4.082,6.872 -2.098,5.99 -2.098,5.99 -1.961,9.141 c -1.071,9.919 -3.027,15.285 -4.354,39.756 l -0.896,16.5 -1.049,2.721 c -0.578,1.496 -1.742,6.672 -2.589,11.5 -0.846,4.828 -2.672,13.729 -4.057,19.779 l -2.519,11 -0.582,10.5 -0.582,10.5 1.685,9.5 c 0.926,5.225 2.282,13.1 3.013,17.5 1.633,9.824 2.714,14.009 5.943,23 l 2.515,7 0.025,4.532 0.026,4.532 1.406,4.968 c 2.636,9.314 21.394,63.937 25.451,74.117 2.226,5.582 5.995,13.682 8.378,18 2.383,4.317 4.931,9.305 5.662,11.082 l 1.33,3.232 -0.583,1.518 -0.582,1.519 h -2.031 -2.031 l 0.007,3.75 0.008,3.75 1.913,6.29 1.913,6.291 3.329,3.981 c 1.831,2.19 5.276,5.99 7.656,8.444 l 4.326,4.463 -0.362,1.765 -0.361,1.766 -3.657,-0.286 -3.658,-0.286 0.554,3.409 0.553,3.409 -1.02,0.63 -1.021,0.63 -1.656,-0.635 -1.656,-0.636 -3.046,-5.397 -3.046,-5.396 -1.388,1.151 -1.388,1.152 -0.021,10.627 -0.021,10.628 1.519,10 c 0.835,5.5 2.182,14.5 2.993,20 0.813,5.5 2.402,13.825 3.535,18.5 1.133,4.675 2.734,11.875 3.561,16 2.834,14.16 9.828,44.747 12.004,52.5 0.772,2.75 2.277,8.824 3.345,13.5 1.067,4.675 3.189,13.675 4.715,20 l 2.774,11.5 c 0,0 0.337,11.155 -0.02,14 -0.357,2.845 -1.733,7.29 -5.39,14.333 -2.904,5.599 -7.765,11.045 -8.657,12.538 z m 60.363,-14.531 c -0.55,-2.312 -2.235,-6.526 -3,-8.667 l -2.833,-5.667 -3.667,-10.5 1.807,11.822 -0.035,3.333 c -0.043,4.031 -2.315,14.974 -3.513,16.911 l -0.862,1.394 -0.729,2.374 1,2.333 c -10e-4,0 10.282,-9.645 11.832,-13.333 z m 106.858,-369.92 1.104,-5.425 3.238,-5.7 3.239,-5.699 0.573,-5.551 0.572,-5.55 h -1.095 -1.095 l -0.681,3.75 c -0.774,4.271 -5.726,17.251 -7.837,20.549 -1.407,2.197 -1.905,4.57 -1.688,8.034 l 0.115,1.833 1.224,-0.407 1.224,-0.408 z m 12.449,-11.043 v -1 l -1,0.618 c -0.551,0.34 -1,1.068 -1,1.618 v 1 l 1,-0.618 c 0.549,-0.34 1,-1.068 1,-1.618 z m 10.984,-18.191 0.016,-4.809 -0.869,0.537 -0.868,0.536 -0.631,3.943 -0.631,3.942 0.639,1.663 0.639,1.664 0.845,-1.334 0.846,-1.334 z m -7.606,-5.01 0.655,-5.819 -1.017,0.628 -1.017,0.629 v 5.607 c 10e-4,6.965 0.52,6.57 1.379,-1.045 z m -27.805,-215.384 -1.493,-17.797 -3.533,-12.409 c -1.942,-6.825 -3.785,-12.662 -4.094,-12.972 l -0.563,-0.562 -0.922,1.472 c -0.508,0.809 -2.799,7.281 -5.091,14.382 l -4.169,12.912 -0.479,6.688 -0.479,6.688 4.564,8.512 c 2.51,4.682 5.884,10.486 7.498,12.9 1.613,2.414 3.273,5.514 3.689,6.889 0.415,1.375 1.934,4.75 3.375,7.5 l 2.621,5 0.283,-10.703 0.283,-10.702 z m -177.447,-1.912 2.838,-6.13 1.503,-6.378 1.503,-6.377 -0.085,-8 -0.085,-8 -0.763,-2.5 -0.762,-2.5 -0.596,1.5 c -0.328,0.825 -2.194,9.395 -4.148,19.043 -1.954,9.649 -3.998,19.096 -4.542,20.994 -0.544,1.897 -0.989,4.295 -0.989,5.328 v 1.88 l 1.645,-1.365 1.644,-1.364 z m 27.553,-205.635 7.733,-6.25 3.294,-4.328 c 0,0 2.809,-2.952 3.293,-4.328 0.484,-1.376 0,-4.738 0,-4.738 0,-2.606 0.479,-7.329 1.063,-10.494 l 1.063,-5.755 -0.673,-3.065 -0.674,-3.065 -6.54,-9.613 -6.539,-9.613 -3.326,-7 -3.326,-7 -1.559,-7.478 -1.559,-7.478 1.036,-4.832 1.036,-4.833 -0.597,-3.735 -0.598,-3.734 1.066,-10.59 1.065,-10.59 2.108,-5.634 2.107,-5.634 7.354,-5.438 7.354,-5.439 2.573,-4.39 2.573,-4.39 1.063,-5.751 1.063,-5.751 -0.551,-1.436 -0.552,-1.436 -3.268,1.675 c -1.797,0.921 -3.493,1.979 -3.768,2.351 -0.275,0.372 -2.593,2.1 -5.149,3.839 l -4.648,3.163 -3.134,3.956 c -5.182,6.543 -10.191,14.137 -11.687,17.715 l -1.409,3.373 -1.524,14.75 c -0.839,8.112 -2.196,18.683 -3.016,23.492 l -1.492,8.742 1.614,6.258 c 0.889,3.441 3.104,10.308 4.924,15.258 1.82,4.95 4.121,12.6 5.114,17 l 1.805,8 0.051,15 0.052,15 -2.75,7.31 -2.75,7.31 v 2.94 2.94 h 1.473 1.473 z m 133.182,-16.911 -3.361,-14.338 -0.073,-33 -0.072,-33 -0.776,-7 -0.777,-7 -2.41,-7.407 -2.41,-7.407 -5.076,-9.557 c -2.791,-5.256 -6.307,-11.148 -7.813,-13.093 -1.506,-1.945 -5.709,-8.036 -9.341,-13.536 l -6.603,-10 -6.136,-6.276 -6.135,-6.276 -4.024,-2.54 -4.024,-2.541 -5.637,-0.917 -5.637,-0.917 -6.482,1.036 -6.482,1.036 -5.744,3.489 -5.744,3.489 -2.894,3.709 c -3.535,4.529 -9.213,15.633 -9.199,17.989 0.005,0.946 1.059,3.973 2.341,6.728 l 2.332,5.007 3.646,3.2 3.646,3.201 3.763,0.991 c 2.07,0.545 6.781,1.507 10.47,2.138 l 6.707,1.146 2.169,1.882 c 1.193,1.035 3.228,3.315 4.52,5.067 l 2.351,3.185 1.504,5.088 c 0.827,2.798 2.595,6.872 3.928,9.051 l 2.424,3.963 6.338,3.582 6.338,3.582 3.706,4.903 3.706,4.903 1.114,4.645 1.113,4.644 -0.586,22.908 -0.586,22.908 1.369,7.049 1.371,7.05 1.88,2.87 1.881,2.87 7.023,3.25 c 3.863,1.788 10.848,5.741 15.521,8.784 l 8.497,5.533 0.864,-0.865 0.864,-0.865 z m -41.503,-31.089 c -0.115,-11.138 -0.243,-20.588 -0.284,-21 -0.1,-1.003 -2.249,-0.926 -3.934,0.142 l -1.358,0.861 -0.319,9.874 c -0.177,5.431 -0.067,13.116 0.242,17.08 l 0.563,7.206 1.852,3.044 c 1.018,1.674 2.211,3.044 2.65,3.044 h 0.8 z m -91.941,-57.735 0.802,6.821 -0.688,1.114 c -0.379,0.613 -1.07,2.444 -1.536,4.068 l -0.847,2.953 0.858,6.07 0.857,6.07 2.911,6.194 c 1.602,3.407 6.4,11.49 10.665,17.963 l 8.862,17.872 2.653,1.441 2.654,1.441 2.5,0.022 c 1.375,0.013 5.479,-0.609 9.122,-1.381 l 6.621,-1.404 6.512,-5.256 6.495,-4.596 6.031,-6.022 7.065,-7.401 1.521,-2.943 c 1.274,-2.463 4.458,-13.927 4.507,-16.229 l 0.016,-0.687 -3.242,-0.313 -3.242,-0.313 -0.328,-1.735 -0.329,-1.735 3.52,-5.765 c 1.935,-3.17 3.782,-6.89 4.105,-8.265 l 0.587,-2.5 -4.604,-4.786 -4.605,-4.786 -2.994,-6.714 c -1.646,-3.693 -3.741,-8.232 -4.654,-10.088 l -1.66,-3.374 -2.132,-1.396 -2.132,-1.397 -7.603,-1.455 -7.602,-1.454 -4.644,-2.183 -4.644,-2.183 -4.008,-5.092 c -2.204,-2.8 -4.401,-5.24 -4.883,-5.42 l -0.876,-0.328 -8.927,7.128 -8.927,7.128 -1.579,3.948 -1.58,3.948 -0.645,5.486 -0.645,5.486 -0.403,2.998 0.468,2.808 z m 89.899,24.767 1.817,-3.718 -0.905,-1.618 -0.905,-1.618 -2.662,3.163 -2.661,3.164 v 2.497 2.497 l 1.75,-0.323 1.75,-0.323 z" />
	<path
   style="fill:#144ec5;stroke:#000000;stroke-width:6;stroke-linejoin:round"
   id="path920"
   d="m 685.501,459.902 c 5.023,3.628 5.578,6.744 5.578,10.241 0,3.497 0.583,13.407 0,20.985 -0.583,7.578 -6.69,29.135 -11.99,34.392 -13.589,13.48 -24.879,39.66 -26.628,53.649 0,0 35.517,23.729 101.538,22.664 82.667,-1.333 106.961,-26.764 106.961,-26.764 l 1.166,-18.653 c 0,0 -16.733,-41.971 -17.899,-47.217 -1.166,-5.246 0.582,-16.321 2.914,-20.985 2.332,-4.664 5.806,-29.163 5.806,-29.163 l 9.798,28.053 c 0,0 3.117,16.476 3.563,32.952 0.236,8.742 -1.53,23.751 -2.303,35.917 -0.683,10.763 -0.369,19.299 -0.369,19.299 0,0 12.269,-2.795 26.047,-2.118 13.78,0.678 22.491,3.899 22.491,3.899 3.563,-12.023 2.226,-65.903 0,-77.926 -2.226,-12.023 -10.133,-54.771 -10.133,-54.771 -2.227,-12.468 -1.445,-41.412 -1.445,-41.412 1.336,-8.016 -0.672,-30.28 -2.928,-41.112 -2.337,-11.219 -8,-27.333 -12,-32 -4,-4.667 -10.666,-12 -14.666,-14.667 -4,-2.667 -29.86,-16.155 -29.86,-16.155 0,0 -14.802,35.359 -51.761,42.929 -3.158,17.133 -32.396,86.723 -32.396,86.723 -2.672,-29.797 -17.578,-68.466 -22.031,-84.051 -25.628,-3.997 -30.998,-24.755 -34.13,-33.108 0,0 -23.84,7.752 -39.322,19.493 -5.499,4.17 -9.55,9.479 -11.833,12.837 -5.667,8.333 -8.118,16.472 -8.666,26 -0.548,9.528 1.321,22.643 1.945,30.642 0.624,7.999 -0.179,32.749 0.267,47.443 0.446,14.694 -4.453,27.608 -7.125,36.069 -2.672,8.461 -12.023,28.499 -12.914,39.631 -0.451,5.634 -1.016,22.102 -1.464,36.995 0,0 8.304,-1.92 16.164,-0.937 8.186,1.024 18.468,3.082 18.468,3.082 2.072,-8.5 17.151,-32.461 17.151,-32.461 l 3.335,-17.366 c 0,-3.117 4.68,-26.272 6.461,-32.507 1.781,-6.235 2.21,-20.522 2.21,-20.522 z" />
	<path
   style="fill:#b3b3b3;stroke:#000000;stroke-width:4.96010017;stroke-linejoin:round"
   id="path922"
   d="m 652.518,576.769 -11.852,56.064 c 0,0 -7.001,50.666 -3.667,68 3.334,17.334 14.001,72.667 13.667,90 3.334,27.667 16.333,69.334 18.333,76.667 2,7.333 5,34.667 5,34.667 0,0 -0.931,34.684 -0.333,44.666 3.334,55.667 29,156 29,156 0,0 46.334,5.667 64.667,-12 2.666,-19.333 3,-98.667 5,-112 2,-13.333 1.332,-38 -1.334,-49.333 -2.666,-11.333 -12.666,-38.667 -9.333,-46 3.333,-7.333 5.667,-32 3.667,-42 -2,-10 -3.893,-32.044 -1.667,-49.333 1.89,-14.682 0.666,-32.667 1.333,-34.667 0.667,-2 5,-21.333 5,-21.333 l 12.667,30 c 0,0 21.333,63.333 26,85.333 4.667,22 27.666,76.667 32.333,80.667 4.667,4 5.334,26 5.334,26 0,0 1.999,19.334 4.666,32 2.667,12.666 18.668,42 25.334,53.333 6.666,11.333 29.332,69.999 30.666,77.333 1.334,7.334 4.667,17.334 4.667,17.334 0,0 74.999,4 70.333,-8.667 -4.666,-12.667 -7.999,-29 -12,-46.667 -3.684,-16.268 -13,-74.667 -14.333,-88 -1.333,-13.333 -17.901,-51.716 -21.234,-56.383 5.968,8.349 -5.399,-37.967 -4.766,-31.617 -0.667,-6.666 -15.667,-43.333 -15.667,-49.333 0,-6 -3.333,-89.333 -3.333,-89.333 l -7.233,-35.207 -10.767,19.207 -10,11.333 -10.667,7.333 -12,-6.666 -0.666,-6.667 6,-16.667 V 725.5 l -4,-12 -8.667,18 c 0,0 -11.999,16.667 -11.333,-10 0.666,-26.667 4.666,-22.667 4.666,-22.667 0,0 0.668,-9.334 1.334,-20 0.666,-10.666 13.332,-20.666 12.666,-27.333 -0.666,-6.667 4,-80 4,-80 0,0 -42,28.667 -108.666,31.333 -56.622,2.266 -102.815,-26.064 -102.815,-26.064 z" />
	<path
   style="fill:#784421;stroke:#000000;stroke-width:5;stroke-linecap:round"
   id="path924"
   d="m 861.5,586 c -10.006,6.444 -25.188,14.141 -40.885,18.856 C 790.033,614.042 757.5,617.5 757.5,617.5 l 1,-14 c 0,0 23.5,-2 50,-8.5 28.704,-7.041 52.46,-19.931 52.46,-19.931 z" />
	<path
   style="fill:#784421;stroke:#000000;stroke-width:5;stroke-linecap:round"
   id="path926"
   d="m 650,588.5 c 29.5,19 94,28.5 94,28.5 l 0.5,-15.5 c 0,0 -21.857,1.526 -50,-7.5 -28.143,-9.026 -41.982,-17.231 -41.982,-17.231 z" />
	<path
   style="fill:none;stroke:#000000;stroke-width:5;stroke-linecap:round"
   id="path928"
   d="M 854.309,435.347 C 852,452.833 840.073,465.948 819.871,467.05" />
	<path
   style="fill:none;stroke:#000000;stroke-width:5;stroke-linecap:round"
   id="path930"
   d="m 707.337,464.623 c -18.67,3.544 -30.794,-16.424 -30.794,-16.424 0,0 -11.846,-18.091 -5.167,-37.684 0,0 6.63,-14.7 7.713,-18.482 1.083,-3.782 -2.35,-14.376 -2.35,-14.376" />
	<path
   style="fill:none;stroke:#000000;stroke-width:5;stroke-linecap:round"
   id="path932"
   d="m 645.945,624.467 c 0,0 25.5,-1.5 31.499,-22.499" />
	<path
   style="fill:none;stroke:#000000;stroke-width:5;stroke-linecap:round"
   id="path934"
   d="m 842.937,596.468 c 0,0 9.063,13.032 18.844,14.688" />
	
		<ellipse
   style="fill:#dcddde;stroke:#000000;stroke-width:4;stroke-linecap:round;stroke-linejoin:round"
   id="ellipse936"
   ry="8.25"
   rx="15"
   cy="610.75"
   cx="752" />
	<polygon
   style="fill:#b3b3b3;stroke:#000000;stroke-width:4;stroke-linecap:round;stroke-linejoin:round"
   id="polygon938"
   points="700,608.5 691.5,605.5 692.5,593.5 701.5,596 " />
	<polygon
   style="fill:#b3b3b3;stroke:#000000;stroke-width:4;stroke-linecap:round;stroke-linejoin:round"
   id="polygon940"
   points="813.5,606.5 822,603.5 821,591.5 812,594 " />
	<path
   style="fill:none;stroke:#000000;stroke-width:5;stroke-linecap:round;stroke-linejoin:bevel"
   id="path942"
   d="m 852.837,462.168 c 0,0 -0.78,-12.914 1.445,-26.272 3.677,-22.071 -4.46,-40.967 -4.46,-40.967" />
	<path
   style="fill:none;stroke:#000000;stroke-width:5;stroke-linecap:round;stroke-linejoin:bevel"
   id="path944"
   d="m 865,493.167 c 0,0 8,9.667 10.334,19.667" />
	<path
   style="fill:none;stroke:#000000;stroke-width:4;stroke-linecap:round;stroke-linejoin:bevel"
   id="path946"
   d="m 666.333,486.5 c 0,0 -3.333,-9 -2.333,-19.667" />
</g>

</svg>